%FSLAX45Y45*%
G04 Gerber Fmt 4.5, Leading zero omitted, Abs format (unit mm)*
G04 Created by KiCad (PCBNEW (6.0.6)) date 2022-07-07 23:16:27*
%MOMM*%
%LPD*%
G01*
G04 APERTURE LIST*
%TA.AperFunction,Profile*%
%ADD10C,0.100000*%
%TD*%
%ADD11C,0.200000*%
%ADD12C,0.040000*%
%ADD13C,0.050000*%
%ADD14C,0.080000*%
%ADD15C,0.100000*%
%ADD16C,0.110000*%
%ADD17C,0.152000*%
G04 APERTURE END LIST*
D10*
X17860000Y-6800000D02*
G75*
G03*
X17860000Y-6800000I-160000J0D01*
G01*
X18000000Y-6800000D02*
G75*
G03*
X17700000Y-6500000I-300000J0D01*
G01*
X10000000Y-11700000D02*
G75*
G03*
X10300000Y-12000000I300000J0D01*
G01*
X10000000Y-6800000D02*
X10000000Y-11700000D01*
X10300000Y-6500000D02*
G75*
G03*
X10000000Y-6800000I0J-300000D01*
G01*
X17860000Y-11700000D02*
G75*
G03*
X17860000Y-11700000I-160000J0D01*
G01*
X10300000Y-6500000D02*
X17700000Y-6500000D01*
X10460000Y-11700000D02*
G75*
G03*
X10460000Y-11700000I-160000J0D01*
G01*
X10460000Y-6800000D02*
G75*
G03*
X10460000Y-6800000I-160000J0D01*
G01*
X10300000Y-12000000D02*
X17700000Y-12000000D01*
X17700000Y-12000000D02*
G75*
G03*
X18000000Y-11700000I0J300000D01*
G01*
X18000000Y-11700000D02*
X18000000Y-6800000D01*
D11*
D12*
X13030000Y-8680000D02*
X13070000Y-8720000D01*
X13070000Y-8680000D02*
X13030000Y-8720000D01*
X13130000Y-8780000D02*
X13170000Y-8820000D01*
X13170000Y-8780000D02*
X13130000Y-8820000D01*
X13555000Y-8755000D02*
X13595000Y-8795000D01*
X13595000Y-8755000D02*
X13555000Y-8795000D01*
X13640000Y-9720000D02*
X13680000Y-9760000D01*
X13680000Y-9720000D02*
X13640000Y-9760000D01*
X13640000Y-9845000D02*
X13680000Y-9885000D01*
X13680000Y-9845000D02*
X13640000Y-9885000D01*
X14030000Y-8880000D02*
X14070000Y-8920000D01*
X14070000Y-8880000D02*
X14030000Y-8920000D01*
X14080000Y-8780000D02*
X14120000Y-8820000D01*
X14120000Y-8780000D02*
X14080000Y-8820000D01*
X14130000Y-8880000D02*
X14170000Y-8920000D01*
X14170000Y-8880000D02*
X14130000Y-8920000D01*
X14180000Y-8780000D02*
X14220000Y-8820000D01*
X14220000Y-8780000D02*
X14180000Y-8820000D01*
X14330000Y-8980000D02*
X14370000Y-9020000D01*
X14370000Y-8980000D02*
X14330000Y-9020000D01*
X14330000Y-9080000D02*
X14370000Y-9120000D01*
X14370000Y-9080000D02*
X14330000Y-9120000D01*
X14780000Y-8430000D02*
X14820000Y-8470000D01*
X14820000Y-8430000D02*
X14780000Y-8470000D01*
X15030000Y-8880000D02*
X15070000Y-8920000D01*
X15070000Y-8880000D02*
X15030000Y-8920000D01*
X15130000Y-8830000D02*
X15170000Y-8870000D01*
X15170000Y-8830000D02*
X15130000Y-8870000D01*
D13*
X14275000Y-6700000D02*
G75*
G03*
X14275000Y-6700000I-25000J0D01*
G01*
X14275000Y-6850000D02*
G75*
G03*
X14275000Y-6850000I-25000J0D01*
G01*
X15675000Y-8900000D02*
G75*
G03*
X15675000Y-8900000I-25000J0D01*
G01*
X15925000Y-8900000D02*
G75*
G03*
X15925000Y-8900000I-25000J0D01*
G01*
D14*
X13250000Y-6814489D02*
X13250000Y-6894489D01*
X13210000Y-6854489D02*
X13290000Y-6854489D01*
X13250000Y-7014489D02*
X13250000Y-7094489D01*
X13210000Y-7054489D02*
X13290000Y-7054489D01*
X13800000Y-6910000D02*
X13800000Y-6990000D01*
X13760000Y-6950000D02*
X13840000Y-6950000D01*
X14000000Y-6910000D02*
X14000000Y-6990000D01*
X13960000Y-6950000D02*
X14040000Y-6950000D01*
D15*
X10685356Y-8866356D02*
X10685356Y-8795644D01*
X10614644Y-8795644D01*
X10614644Y-8866356D01*
X10685356Y-8866356D01*
X10685356Y-9120356D02*
X10685356Y-9049644D01*
X10614644Y-9049644D01*
X10614644Y-9120356D01*
X10685356Y-9120356D01*
X10685356Y-9374356D02*
X10685356Y-9303644D01*
X10614644Y-9303644D01*
X10614644Y-9374356D01*
X10685356Y-9374356D01*
X10685356Y-9628356D02*
X10685356Y-9557644D01*
X10614644Y-9557644D01*
X10614644Y-9628356D01*
X10685356Y-9628356D01*
X10685356Y-9882356D02*
X10685356Y-9811644D01*
X10614644Y-9811644D01*
X10614644Y-9882356D01*
X10685356Y-9882356D01*
X10685356Y-10136356D02*
X10685356Y-10065644D01*
X10614644Y-10065644D01*
X10614644Y-10136356D01*
X10685356Y-10136356D01*
X10685356Y-10390356D02*
X10685356Y-10319644D01*
X10614644Y-10319644D01*
X10614644Y-10390356D01*
X10685356Y-10390356D01*
X10685356Y-10644356D02*
X10685356Y-10573644D01*
X10614644Y-10573644D01*
X10614644Y-10644356D01*
X10685356Y-10644356D01*
X13195356Y-9251356D02*
X13195356Y-9180644D01*
X13124644Y-9180644D01*
X13124644Y-9251356D01*
X13195356Y-9251356D01*
X13195356Y-9505356D02*
X13195356Y-9434644D01*
X13124644Y-9434644D01*
X13124644Y-9505356D01*
X13195356Y-9505356D01*
X13195356Y-9759356D02*
X13195356Y-9688644D01*
X13124644Y-9688644D01*
X13124644Y-9759356D01*
X13195356Y-9759356D01*
X13195356Y-10013356D02*
X13195356Y-9942644D01*
X13124644Y-9942644D01*
X13124644Y-10013356D01*
X13195356Y-10013356D01*
X14615356Y-6855356D02*
X14615356Y-6784644D01*
X14544644Y-6784644D01*
X14544644Y-6855356D01*
X14615356Y-6855356D01*
X14855356Y-7372856D02*
X14855356Y-7302144D01*
X14784644Y-7302144D01*
X14784644Y-7372856D01*
X14855356Y-7372856D01*
X14855356Y-7626856D02*
X14855356Y-7556144D01*
X14784644Y-7556144D01*
X14784644Y-7626856D01*
X14855356Y-7626856D01*
X14855356Y-7880856D02*
X14855356Y-7810144D01*
X14784644Y-7810144D01*
X14784644Y-7880856D01*
X14855356Y-7880856D01*
X14855356Y-8134856D02*
X14855356Y-8064144D01*
X14784644Y-8064144D01*
X14784644Y-8134856D01*
X14855356Y-8134856D01*
X14869356Y-6855356D02*
X14869356Y-6784644D01*
X14798644Y-6784644D01*
X14798644Y-6855356D01*
X14869356Y-6855356D01*
X15109356Y-7372856D02*
X15109356Y-7302144D01*
X15038644Y-7302144D01*
X15038644Y-7372856D01*
X15109356Y-7372856D01*
X15109356Y-7626856D02*
X15109356Y-7556144D01*
X15038644Y-7556144D01*
X15038644Y-7626856D01*
X15109356Y-7626856D01*
X15109356Y-7880856D02*
X15109356Y-7810144D01*
X15038644Y-7810144D01*
X15038644Y-7880856D01*
X15109356Y-7880856D01*
X15109356Y-8134856D02*
X15109356Y-8064144D01*
X15038644Y-8064144D01*
X15038644Y-8134856D01*
X15109356Y-8134856D01*
X15123356Y-6855356D02*
X15123356Y-6784644D01*
X15052644Y-6784644D01*
X15052644Y-6855356D01*
X15123356Y-6855356D01*
X15377356Y-6855356D02*
X15377356Y-6784644D01*
X15306644Y-6784644D01*
X15306644Y-6855356D01*
X15377356Y-6855356D01*
D16*
X11038000Y-6854000D02*
X11093000Y-6799000D01*
X11038000Y-6744000D01*
X10983000Y-6799000D01*
X11038000Y-6854000D01*
X11038000Y-7108000D02*
X11093000Y-7053000D01*
X11038000Y-6998000D01*
X10983000Y-7053000D01*
X11038000Y-7108000D01*
X11038000Y-7362000D02*
X11093000Y-7307000D01*
X11038000Y-7252000D01*
X10983000Y-7307000D01*
X11038000Y-7362000D01*
X11038000Y-7616000D02*
X11093000Y-7561000D01*
X11038000Y-7506000D01*
X10983000Y-7561000D01*
X11038000Y-7616000D01*
X11038000Y-7870000D02*
X11093000Y-7815000D01*
X11038000Y-7760000D01*
X10983000Y-7815000D01*
X11038000Y-7870000D01*
X11038000Y-8124000D02*
X11093000Y-8069000D01*
X11038000Y-8014000D01*
X10983000Y-8069000D01*
X11038000Y-8124000D01*
X11038000Y-8378000D02*
X11093000Y-8323000D01*
X11038000Y-8268000D01*
X10983000Y-8323000D01*
X11038000Y-8378000D01*
X11038000Y-8632000D02*
X11093000Y-8577000D01*
X11038000Y-8522000D01*
X10983000Y-8577000D01*
X11038000Y-8632000D01*
X11038000Y-8886000D02*
X11093000Y-8831000D01*
X11038000Y-8776000D01*
X10983000Y-8831000D01*
X11038000Y-8886000D01*
X11038000Y-9140000D02*
X11093000Y-9085000D01*
X11038000Y-9030000D01*
X10983000Y-9085000D01*
X11038000Y-9140000D01*
X11038000Y-9394000D02*
X11093000Y-9339000D01*
X11038000Y-9284000D01*
X10983000Y-9339000D01*
X11038000Y-9394000D01*
X11038000Y-9648000D02*
X11093000Y-9593000D01*
X11038000Y-9538000D01*
X10983000Y-9593000D01*
X11038000Y-9648000D01*
X11038000Y-9902000D02*
X11093000Y-9847000D01*
X11038000Y-9792000D01*
X10983000Y-9847000D01*
X11038000Y-9902000D01*
X11038000Y-10156000D02*
X11093000Y-10101000D01*
X11038000Y-10046000D01*
X10983000Y-10101000D01*
X11038000Y-10156000D01*
X11292000Y-9394000D02*
X11347000Y-9339000D01*
X11292000Y-9284000D01*
X11237000Y-9339000D01*
X11292000Y-9394000D01*
X11292000Y-9648000D02*
X11347000Y-9593000D01*
X11292000Y-9538000D01*
X11237000Y-9593000D01*
X11292000Y-9648000D01*
X11292000Y-10156000D02*
X11347000Y-10101000D01*
X11292000Y-10046000D01*
X11237000Y-10101000D01*
X11292000Y-10156000D01*
X11546000Y-9394000D02*
X11601000Y-9339000D01*
X11546000Y-9284000D01*
X11491000Y-9339000D01*
X11546000Y-9394000D01*
X11546000Y-9648000D02*
X11601000Y-9593000D01*
X11546000Y-9538000D01*
X11491000Y-9593000D01*
X11546000Y-9648000D01*
X11546000Y-10156000D02*
X11601000Y-10101000D01*
X11546000Y-10046000D01*
X11491000Y-10101000D01*
X11546000Y-10156000D01*
X11800000Y-9394000D02*
X11855000Y-9339000D01*
X11800000Y-9284000D01*
X11745000Y-9339000D01*
X11800000Y-9394000D01*
X11800000Y-9648000D02*
X11855000Y-9593000D01*
X11800000Y-9538000D01*
X11745000Y-9593000D01*
X11800000Y-9648000D01*
X11800000Y-10156000D02*
X11855000Y-10101000D01*
X11800000Y-10046000D01*
X11745000Y-10101000D01*
X11800000Y-10156000D01*
X12054000Y-9394000D02*
X12109000Y-9339000D01*
X12054000Y-9284000D01*
X11999000Y-9339000D01*
X12054000Y-9394000D01*
X12054000Y-9648000D02*
X12109000Y-9593000D01*
X12054000Y-9538000D01*
X11999000Y-9593000D01*
X12054000Y-9648000D01*
X12054000Y-10156000D02*
X12109000Y-10101000D01*
X12054000Y-10046000D01*
X11999000Y-10101000D01*
X12054000Y-10156000D01*
X12308000Y-7108000D02*
X12363000Y-7053000D01*
X12308000Y-6998000D01*
X12253000Y-7053000D01*
X12308000Y-7108000D01*
X12308000Y-9394000D02*
X12363000Y-9339000D01*
X12308000Y-9284000D01*
X12253000Y-9339000D01*
X12308000Y-9394000D01*
X12308000Y-9648000D02*
X12363000Y-9593000D01*
X12308000Y-9538000D01*
X12253000Y-9593000D01*
X12308000Y-9648000D01*
X12308000Y-10156000D02*
X12363000Y-10101000D01*
X12308000Y-10046000D01*
X12253000Y-10101000D01*
X12308000Y-10156000D01*
X12562000Y-6854000D02*
X12617000Y-6799000D01*
X12562000Y-6744000D01*
X12507000Y-6799000D01*
X12562000Y-6854000D01*
X12562000Y-7108000D02*
X12617000Y-7053000D01*
X12562000Y-6998000D01*
X12507000Y-7053000D01*
X12562000Y-7108000D01*
X12562000Y-7362000D02*
X12617000Y-7307000D01*
X12562000Y-7252000D01*
X12507000Y-7307000D01*
X12562000Y-7362000D01*
X12562000Y-7616000D02*
X12617000Y-7561000D01*
X12562000Y-7506000D01*
X12507000Y-7561000D01*
X12562000Y-7616000D01*
X12562000Y-7870000D02*
X12617000Y-7815000D01*
X12562000Y-7760000D01*
X12507000Y-7815000D01*
X12562000Y-7870000D01*
X12562000Y-8124000D02*
X12617000Y-8069000D01*
X12562000Y-8014000D01*
X12507000Y-8069000D01*
X12562000Y-8124000D01*
X12562000Y-8378000D02*
X12617000Y-8323000D01*
X12562000Y-8268000D01*
X12507000Y-8323000D01*
X12562000Y-8378000D01*
X12562000Y-8632000D02*
X12617000Y-8577000D01*
X12562000Y-8522000D01*
X12507000Y-8577000D01*
X12562000Y-8632000D01*
X12562000Y-8886000D02*
X12617000Y-8831000D01*
X12562000Y-8776000D01*
X12507000Y-8831000D01*
X12562000Y-8886000D01*
X12562000Y-9140000D02*
X12617000Y-9085000D01*
X12562000Y-9030000D01*
X12507000Y-9085000D01*
X12562000Y-9140000D01*
X12562000Y-9394000D02*
X12617000Y-9339000D01*
X12562000Y-9284000D01*
X12507000Y-9339000D01*
X12562000Y-9394000D01*
X12562000Y-9648000D02*
X12617000Y-9593000D01*
X12562000Y-9538000D01*
X12507000Y-9593000D01*
X12562000Y-9648000D01*
X12562000Y-9902000D02*
X12617000Y-9847000D01*
X12562000Y-9792000D01*
X12507000Y-9847000D01*
X12562000Y-9902000D01*
X12562000Y-10156000D02*
X12617000Y-10101000D01*
X12562000Y-10046000D01*
X12507000Y-10101000D01*
X12562000Y-10156000D01*
D17*
X11720000Y-11224000D02*
X11872000Y-11376000D01*
X11872000Y-11224000D02*
X11720000Y-11376000D01*
X11872000Y-11300000D02*
G75*
G03*
X11872000Y-11300000I-76000J0D01*
G01*
X12228000Y-11224000D02*
X12380000Y-11376000D01*
X12380000Y-11224000D02*
X12228000Y-11376000D01*
X12380000Y-11300000D02*
G75*
G03*
X12380000Y-11300000I-76000J0D01*
G01*
X13020000Y-11224000D02*
X13172000Y-11376000D01*
X13172000Y-11224000D02*
X13020000Y-11376000D01*
X13172000Y-11300000D02*
G75*
G03*
X13172000Y-11300000I-76000J0D01*
G01*
X13528000Y-11224000D02*
X13680000Y-11376000D01*
X13680000Y-11224000D02*
X13528000Y-11376000D01*
X13680000Y-11300000D02*
G75*
G03*
X13680000Y-11300000I-76000J0D01*
G01*
X14320000Y-11224000D02*
X14472000Y-11376000D01*
X14472000Y-11224000D02*
X14320000Y-11376000D01*
X14472000Y-11300000D02*
G75*
G03*
X14472000Y-11300000I-76000J0D01*
G01*
X14828000Y-11224000D02*
X14980000Y-11376000D01*
X14980000Y-11224000D02*
X14828000Y-11376000D01*
X14980000Y-11300000D02*
G75*
G03*
X14980000Y-11300000I-76000J0D01*
G01*
X15620000Y-11224000D02*
X15772000Y-11376000D01*
X15772000Y-11224000D02*
X15620000Y-11376000D01*
X15772000Y-11300000D02*
G75*
G03*
X15772000Y-11300000I-76000J0D01*
G01*
X16128000Y-11224000D02*
X16280000Y-11376000D01*
X16280000Y-11224000D02*
X16128000Y-11376000D01*
X16280000Y-11300000D02*
G75*
G03*
X16280000Y-11300000I-76000J0D01*
G01*
X17224000Y-9212000D02*
X17376000Y-9364000D01*
X17376000Y-9212000D02*
X17224000Y-9364000D01*
X17376000Y-9288000D02*
G75*
G03*
X17376000Y-9288000I-76000J0D01*
G01*
X17224000Y-9720000D02*
X17376000Y-9872000D01*
X17376000Y-9720000D02*
X17224000Y-9872000D01*
X17376000Y-9796000D02*
G75*
G03*
X17376000Y-9796000I-76000J0D01*
G01*
X17224000Y-10228000D02*
X17376000Y-10380000D01*
X17376000Y-10228000D02*
X17224000Y-10380000D01*
X17376000Y-10304000D02*
G75*
G03*
X17376000Y-10304000I-76000J0D01*
G01*
X17224000Y-10736000D02*
X17376000Y-10888000D01*
X17376000Y-10736000D02*
X17224000Y-10888000D01*
X17376000Y-10812000D02*
G75*
G03*
X17376000Y-10812000I-76000J0D01*
G01*
D11*
X10252619Y-12315476D02*
X10252619Y-12115476D01*
X10300238Y-12115476D01*
X10328810Y-12125000D01*
X10347857Y-12144048D01*
X10357381Y-12163095D01*
X10366905Y-12201190D01*
X10366905Y-12229762D01*
X10357381Y-12267857D01*
X10347857Y-12286905D01*
X10328810Y-12305952D01*
X10300238Y-12315476D01*
X10252619Y-12315476D01*
X10452619Y-12315476D02*
X10452619Y-12182143D01*
X10452619Y-12220238D02*
X10462143Y-12201190D01*
X10471667Y-12191667D01*
X10490714Y-12182143D01*
X10509762Y-12182143D01*
X10576429Y-12315476D02*
X10576429Y-12182143D01*
X10576429Y-12115476D02*
X10566905Y-12125000D01*
X10576429Y-12134524D01*
X10585952Y-12125000D01*
X10576429Y-12115476D01*
X10576429Y-12134524D01*
X10700238Y-12315476D02*
X10681190Y-12305952D01*
X10671667Y-12286905D01*
X10671667Y-12115476D01*
X10805000Y-12315476D02*
X10785952Y-12305952D01*
X10776429Y-12286905D01*
X10776429Y-12115476D01*
X11033571Y-12315476D02*
X11033571Y-12115476D01*
X11100238Y-12258333D01*
X11166905Y-12115476D01*
X11166905Y-12315476D01*
X11347857Y-12315476D02*
X11347857Y-12210714D01*
X11338333Y-12191667D01*
X11319286Y-12182143D01*
X11281190Y-12182143D01*
X11262143Y-12191667D01*
X11347857Y-12305952D02*
X11328809Y-12315476D01*
X11281190Y-12315476D01*
X11262143Y-12305952D01*
X11252619Y-12286905D01*
X11252619Y-12267857D01*
X11262143Y-12248809D01*
X11281190Y-12239286D01*
X11328809Y-12239286D01*
X11347857Y-12229762D01*
X11443095Y-12182143D02*
X11443095Y-12382143D01*
X11443095Y-12191667D02*
X11462143Y-12182143D01*
X11500238Y-12182143D01*
X11519286Y-12191667D01*
X11528809Y-12201190D01*
X11538333Y-12220238D01*
X11538333Y-12277381D01*
X11528809Y-12296428D01*
X11519286Y-12305952D01*
X11500238Y-12315476D01*
X11462143Y-12315476D01*
X11443095Y-12305952D01*
X11624048Y-12296428D02*
X11633571Y-12305952D01*
X11624048Y-12315476D01*
X11614524Y-12305952D01*
X11624048Y-12296428D01*
X11624048Y-12315476D01*
X11624048Y-12191667D02*
X11633571Y-12201190D01*
X11624048Y-12210714D01*
X11614524Y-12201190D01*
X11624048Y-12191667D01*
X11624048Y-12210714D01*
D12*
X9955000Y-12625000D02*
X9995000Y-12665000D01*
X9995000Y-12625000D02*
X9955000Y-12665000D01*
D11*
X10290714Y-12535476D02*
X10309762Y-12535476D01*
X10328810Y-12545000D01*
X10338333Y-12554524D01*
X10347857Y-12573571D01*
X10357381Y-12611667D01*
X10357381Y-12659286D01*
X10347857Y-12697381D01*
X10338333Y-12716428D01*
X10328810Y-12725952D01*
X10309762Y-12735476D01*
X10290714Y-12735476D01*
X10271667Y-12725952D01*
X10262143Y-12716428D01*
X10252619Y-12697381D01*
X10243095Y-12659286D01*
X10243095Y-12611667D01*
X10252619Y-12573571D01*
X10262143Y-12554524D01*
X10271667Y-12545000D01*
X10290714Y-12535476D01*
X10443095Y-12716428D02*
X10452619Y-12725952D01*
X10443095Y-12735476D01*
X10433571Y-12725952D01*
X10443095Y-12716428D01*
X10443095Y-12735476D01*
X10624048Y-12602143D02*
X10624048Y-12735476D01*
X10576429Y-12525952D02*
X10528810Y-12668809D01*
X10652619Y-12668809D01*
X10766905Y-12535476D02*
X10785952Y-12535476D01*
X10805000Y-12545000D01*
X10814524Y-12554524D01*
X10824048Y-12573571D01*
X10833571Y-12611667D01*
X10833571Y-12659286D01*
X10824048Y-12697381D01*
X10814524Y-12716428D01*
X10805000Y-12725952D01*
X10785952Y-12735476D01*
X10766905Y-12735476D01*
X10747857Y-12725952D01*
X10738333Y-12716428D01*
X10728810Y-12697381D01*
X10719286Y-12659286D01*
X10719286Y-12611667D01*
X10728810Y-12573571D01*
X10738333Y-12554524D01*
X10747857Y-12545000D01*
X10766905Y-12535476D01*
X10957381Y-12535476D02*
X10976429Y-12535476D01*
X10995476Y-12545000D01*
X11005000Y-12554524D01*
X11014524Y-12573571D01*
X11024048Y-12611667D01*
X11024048Y-12659286D01*
X11014524Y-12697381D01*
X11005000Y-12716428D01*
X10995476Y-12725952D01*
X10976429Y-12735476D01*
X10957381Y-12735476D01*
X10938333Y-12725952D01*
X10928810Y-12716428D01*
X10919286Y-12697381D01*
X10909762Y-12659286D01*
X10909762Y-12611667D01*
X10919286Y-12573571D01*
X10928810Y-12554524D01*
X10938333Y-12545000D01*
X10957381Y-12535476D01*
X11109762Y-12735476D02*
X11109762Y-12602143D01*
X11109762Y-12621190D02*
X11119286Y-12611667D01*
X11138333Y-12602143D01*
X11166905Y-12602143D01*
X11185952Y-12611667D01*
X11195476Y-12630714D01*
X11195476Y-12735476D01*
X11195476Y-12630714D02*
X11205000Y-12611667D01*
X11224048Y-12602143D01*
X11252619Y-12602143D01*
X11271667Y-12611667D01*
X11281190Y-12630714D01*
X11281190Y-12735476D01*
X11376428Y-12735476D02*
X11376428Y-12602143D01*
X11376428Y-12621190D02*
X11385952Y-12611667D01*
X11405000Y-12602143D01*
X11433571Y-12602143D01*
X11452619Y-12611667D01*
X11462143Y-12630714D01*
X11462143Y-12735476D01*
X11462143Y-12630714D02*
X11471667Y-12611667D01*
X11490714Y-12602143D01*
X11519286Y-12602143D01*
X11538333Y-12611667D01*
X11547857Y-12630714D01*
X11547857Y-12735476D01*
X11938333Y-12525952D02*
X11766905Y-12783095D01*
X12195476Y-12535476D02*
X12214524Y-12535476D01*
X12233571Y-12545000D01*
X12243095Y-12554524D01*
X12252619Y-12573571D01*
X12262143Y-12611667D01*
X12262143Y-12659286D01*
X12252619Y-12697381D01*
X12243095Y-12716428D01*
X12233571Y-12725952D01*
X12214524Y-12735476D01*
X12195476Y-12735476D01*
X12176428Y-12725952D01*
X12166905Y-12716428D01*
X12157381Y-12697381D01*
X12147857Y-12659286D01*
X12147857Y-12611667D01*
X12157381Y-12573571D01*
X12166905Y-12554524D01*
X12176428Y-12545000D01*
X12195476Y-12535476D01*
X12347857Y-12716428D02*
X12357381Y-12725952D01*
X12347857Y-12735476D01*
X12338333Y-12725952D01*
X12347857Y-12716428D01*
X12347857Y-12735476D01*
X12481190Y-12535476D02*
X12500238Y-12535476D01*
X12519286Y-12545000D01*
X12528809Y-12554524D01*
X12538333Y-12573571D01*
X12547857Y-12611667D01*
X12547857Y-12659286D01*
X12538333Y-12697381D01*
X12528809Y-12716428D01*
X12519286Y-12725952D01*
X12500238Y-12735476D01*
X12481190Y-12735476D01*
X12462143Y-12725952D01*
X12452619Y-12716428D01*
X12443095Y-12697381D01*
X12433571Y-12659286D01*
X12433571Y-12611667D01*
X12443095Y-12573571D01*
X12452619Y-12554524D01*
X12462143Y-12545000D01*
X12481190Y-12535476D01*
X12738333Y-12735476D02*
X12624048Y-12735476D01*
X12681190Y-12735476D02*
X12681190Y-12535476D01*
X12662143Y-12564048D01*
X12643095Y-12583095D01*
X12624048Y-12592619D01*
X12919286Y-12535476D02*
X12824048Y-12535476D01*
X12814524Y-12630714D01*
X12824048Y-12621190D01*
X12843095Y-12611667D01*
X12890714Y-12611667D01*
X12909762Y-12621190D01*
X12919286Y-12630714D01*
X12928809Y-12649762D01*
X12928809Y-12697381D01*
X12919286Y-12716428D01*
X12909762Y-12725952D01*
X12890714Y-12735476D01*
X12843095Y-12735476D01*
X12824048Y-12725952D01*
X12814524Y-12716428D01*
X12995476Y-12535476D02*
X13128809Y-12535476D01*
X13043095Y-12735476D01*
X13195476Y-12535476D02*
X13195476Y-12573571D01*
X13271667Y-12535476D02*
X13271667Y-12573571D01*
X13566905Y-12811667D02*
X13557381Y-12802143D01*
X13538333Y-12773571D01*
X13528809Y-12754524D01*
X13519286Y-12725952D01*
X13509762Y-12678333D01*
X13509762Y-12640238D01*
X13519286Y-12592619D01*
X13528809Y-12564048D01*
X13538333Y-12545000D01*
X13557381Y-12516428D01*
X13566905Y-12506905D01*
X13747857Y-12735476D02*
X13633571Y-12735476D01*
X13690714Y-12735476D02*
X13690714Y-12535476D01*
X13671667Y-12564048D01*
X13652619Y-12583095D01*
X13633571Y-12592619D01*
X13919286Y-12602143D02*
X13919286Y-12735476D01*
X13871667Y-12525952D02*
X13824048Y-12668809D01*
X13947857Y-12668809D01*
X14176428Y-12735476D02*
X14176428Y-12535476D01*
X14262143Y-12735476D02*
X14262143Y-12630714D01*
X14252619Y-12611667D01*
X14233571Y-12602143D01*
X14205000Y-12602143D01*
X14185952Y-12611667D01*
X14176428Y-12621190D01*
X14385952Y-12735476D02*
X14366905Y-12725952D01*
X14357381Y-12716428D01*
X14347857Y-12697381D01*
X14347857Y-12640238D01*
X14357381Y-12621190D01*
X14366905Y-12611667D01*
X14385952Y-12602143D01*
X14414524Y-12602143D01*
X14433571Y-12611667D01*
X14443095Y-12621190D01*
X14452619Y-12640238D01*
X14452619Y-12697381D01*
X14443095Y-12716428D01*
X14433571Y-12725952D01*
X14414524Y-12735476D01*
X14385952Y-12735476D01*
X14566905Y-12735476D02*
X14547857Y-12725952D01*
X14538333Y-12706905D01*
X14538333Y-12535476D01*
X14719286Y-12725952D02*
X14700238Y-12735476D01*
X14662143Y-12735476D01*
X14643095Y-12725952D01*
X14633571Y-12706905D01*
X14633571Y-12630714D01*
X14643095Y-12611667D01*
X14662143Y-12602143D01*
X14700238Y-12602143D01*
X14719286Y-12611667D01*
X14728809Y-12630714D01*
X14728809Y-12649762D01*
X14633571Y-12668809D01*
X14805000Y-12725952D02*
X14824048Y-12735476D01*
X14862143Y-12735476D01*
X14881190Y-12725952D01*
X14890714Y-12706905D01*
X14890714Y-12697381D01*
X14881190Y-12678333D01*
X14862143Y-12668809D01*
X14833571Y-12668809D01*
X14814524Y-12659286D01*
X14805000Y-12640238D01*
X14805000Y-12630714D01*
X14814524Y-12611667D01*
X14833571Y-12602143D01*
X14862143Y-12602143D01*
X14881190Y-12611667D01*
X14957381Y-12811667D02*
X14966905Y-12802143D01*
X14985952Y-12773571D01*
X14995476Y-12754524D01*
X15005000Y-12725952D01*
X15014524Y-12678333D01*
X15014524Y-12640238D01*
X15005000Y-12592619D01*
X14995476Y-12564048D01*
X14985952Y-12545000D01*
X14966905Y-12516428D01*
X14957381Y-12506905D01*
D13*
X9995000Y-12909000D02*
G75*
G03*
X9995000Y-12909000I-25000J0D01*
G01*
D11*
X10290714Y-12799476D02*
X10309762Y-12799476D01*
X10328810Y-12809000D01*
X10338333Y-12818524D01*
X10347857Y-12837571D01*
X10357381Y-12875667D01*
X10357381Y-12923286D01*
X10347857Y-12961381D01*
X10338333Y-12980428D01*
X10328810Y-12989952D01*
X10309762Y-12999476D01*
X10290714Y-12999476D01*
X10271667Y-12989952D01*
X10262143Y-12980428D01*
X10252619Y-12961381D01*
X10243095Y-12923286D01*
X10243095Y-12875667D01*
X10252619Y-12837571D01*
X10262143Y-12818524D01*
X10271667Y-12809000D01*
X10290714Y-12799476D01*
X10443095Y-12980428D02*
X10452619Y-12989952D01*
X10443095Y-12999476D01*
X10433571Y-12989952D01*
X10443095Y-12980428D01*
X10443095Y-12999476D01*
X10633571Y-12799476D02*
X10538333Y-12799476D01*
X10528810Y-12894714D01*
X10538333Y-12885190D01*
X10557381Y-12875667D01*
X10605000Y-12875667D01*
X10624048Y-12885190D01*
X10633571Y-12894714D01*
X10643095Y-12913762D01*
X10643095Y-12961381D01*
X10633571Y-12980428D01*
X10624048Y-12989952D01*
X10605000Y-12999476D01*
X10557381Y-12999476D01*
X10538333Y-12989952D01*
X10528810Y-12980428D01*
X10766905Y-12799476D02*
X10785952Y-12799476D01*
X10805000Y-12809000D01*
X10814524Y-12818524D01*
X10824048Y-12837571D01*
X10833571Y-12875667D01*
X10833571Y-12923286D01*
X10824048Y-12961381D01*
X10814524Y-12980428D01*
X10805000Y-12989952D01*
X10785952Y-12999476D01*
X10766905Y-12999476D01*
X10747857Y-12989952D01*
X10738333Y-12980428D01*
X10728810Y-12961381D01*
X10719286Y-12923286D01*
X10719286Y-12875667D01*
X10728810Y-12837571D01*
X10738333Y-12818524D01*
X10747857Y-12809000D01*
X10766905Y-12799476D01*
X10957381Y-12799476D02*
X10976429Y-12799476D01*
X10995476Y-12809000D01*
X11005000Y-12818524D01*
X11014524Y-12837571D01*
X11024048Y-12875667D01*
X11024048Y-12923286D01*
X11014524Y-12961381D01*
X11005000Y-12980428D01*
X10995476Y-12989952D01*
X10976429Y-12999476D01*
X10957381Y-12999476D01*
X10938333Y-12989952D01*
X10928810Y-12980428D01*
X10919286Y-12961381D01*
X10909762Y-12923286D01*
X10909762Y-12875667D01*
X10919286Y-12837571D01*
X10928810Y-12818524D01*
X10938333Y-12809000D01*
X10957381Y-12799476D01*
X11109762Y-12999476D02*
X11109762Y-12866143D01*
X11109762Y-12885190D02*
X11119286Y-12875667D01*
X11138333Y-12866143D01*
X11166905Y-12866143D01*
X11185952Y-12875667D01*
X11195476Y-12894714D01*
X11195476Y-12999476D01*
X11195476Y-12894714D02*
X11205000Y-12875667D01*
X11224048Y-12866143D01*
X11252619Y-12866143D01*
X11271667Y-12875667D01*
X11281190Y-12894714D01*
X11281190Y-12999476D01*
X11376428Y-12999476D02*
X11376428Y-12866143D01*
X11376428Y-12885190D02*
X11385952Y-12875667D01*
X11405000Y-12866143D01*
X11433571Y-12866143D01*
X11452619Y-12875667D01*
X11462143Y-12894714D01*
X11462143Y-12999476D01*
X11462143Y-12894714D02*
X11471667Y-12875667D01*
X11490714Y-12866143D01*
X11519286Y-12866143D01*
X11538333Y-12875667D01*
X11547857Y-12894714D01*
X11547857Y-12999476D01*
X11938333Y-12789952D02*
X11766905Y-13047095D01*
X12195476Y-12799476D02*
X12214524Y-12799476D01*
X12233571Y-12809000D01*
X12243095Y-12818524D01*
X12252619Y-12837571D01*
X12262143Y-12875667D01*
X12262143Y-12923286D01*
X12252619Y-12961381D01*
X12243095Y-12980428D01*
X12233571Y-12989952D01*
X12214524Y-12999476D01*
X12195476Y-12999476D01*
X12176428Y-12989952D01*
X12166905Y-12980428D01*
X12157381Y-12961381D01*
X12147857Y-12923286D01*
X12147857Y-12875667D01*
X12157381Y-12837571D01*
X12166905Y-12818524D01*
X12176428Y-12809000D01*
X12195476Y-12799476D01*
X12347857Y-12980428D02*
X12357381Y-12989952D01*
X12347857Y-12999476D01*
X12338333Y-12989952D01*
X12347857Y-12980428D01*
X12347857Y-12999476D01*
X12481190Y-12799476D02*
X12500238Y-12799476D01*
X12519286Y-12809000D01*
X12528809Y-12818524D01*
X12538333Y-12837571D01*
X12547857Y-12875667D01*
X12547857Y-12923286D01*
X12538333Y-12961381D01*
X12528809Y-12980428D01*
X12519286Y-12989952D01*
X12500238Y-12999476D01*
X12481190Y-12999476D01*
X12462143Y-12989952D01*
X12452619Y-12980428D01*
X12443095Y-12961381D01*
X12433571Y-12923286D01*
X12433571Y-12875667D01*
X12443095Y-12837571D01*
X12452619Y-12818524D01*
X12462143Y-12809000D01*
X12481190Y-12799476D01*
X12738333Y-12999476D02*
X12624048Y-12999476D01*
X12681190Y-12999476D02*
X12681190Y-12799476D01*
X12662143Y-12828048D01*
X12643095Y-12847095D01*
X12624048Y-12856619D01*
X12833571Y-12999476D02*
X12871667Y-12999476D01*
X12890714Y-12989952D01*
X12900238Y-12980428D01*
X12919286Y-12951857D01*
X12928809Y-12913762D01*
X12928809Y-12837571D01*
X12919286Y-12818524D01*
X12909762Y-12809000D01*
X12890714Y-12799476D01*
X12852619Y-12799476D01*
X12833571Y-12809000D01*
X12824048Y-12818524D01*
X12814524Y-12837571D01*
X12814524Y-12885190D01*
X12824048Y-12904238D01*
X12833571Y-12913762D01*
X12852619Y-12923286D01*
X12890714Y-12923286D01*
X12909762Y-12913762D01*
X12919286Y-12904238D01*
X12928809Y-12885190D01*
X12995476Y-12799476D02*
X13128809Y-12799476D01*
X13043095Y-12999476D01*
X13195476Y-12799476D02*
X13195476Y-12837571D01*
X13271667Y-12799476D02*
X13271667Y-12837571D01*
X13566905Y-13075667D02*
X13557381Y-13066143D01*
X13538333Y-13037571D01*
X13528809Y-13018524D01*
X13519286Y-12989952D01*
X13509762Y-12942333D01*
X13509762Y-12904238D01*
X13519286Y-12856619D01*
X13528809Y-12828048D01*
X13538333Y-12809000D01*
X13557381Y-12780428D01*
X13566905Y-12770905D01*
X13728809Y-12866143D02*
X13728809Y-12999476D01*
X13681190Y-12789952D02*
X13633571Y-12932809D01*
X13757381Y-12932809D01*
X13985952Y-12999476D02*
X13985952Y-12799476D01*
X14071667Y-12999476D02*
X14071667Y-12894714D01*
X14062143Y-12875667D01*
X14043095Y-12866143D01*
X14014524Y-12866143D01*
X13995476Y-12875667D01*
X13985952Y-12885190D01*
X14195476Y-12999476D02*
X14176428Y-12989952D01*
X14166905Y-12980428D01*
X14157381Y-12961381D01*
X14157381Y-12904238D01*
X14166905Y-12885190D01*
X14176428Y-12875667D01*
X14195476Y-12866143D01*
X14224048Y-12866143D01*
X14243095Y-12875667D01*
X14252619Y-12885190D01*
X14262143Y-12904238D01*
X14262143Y-12961381D01*
X14252619Y-12980428D01*
X14243095Y-12989952D01*
X14224048Y-12999476D01*
X14195476Y-12999476D01*
X14376428Y-12999476D02*
X14357381Y-12989952D01*
X14347857Y-12970905D01*
X14347857Y-12799476D01*
X14528809Y-12989952D02*
X14509762Y-12999476D01*
X14471667Y-12999476D01*
X14452619Y-12989952D01*
X14443095Y-12970905D01*
X14443095Y-12894714D01*
X14452619Y-12875667D01*
X14471667Y-12866143D01*
X14509762Y-12866143D01*
X14528809Y-12875667D01*
X14538333Y-12894714D01*
X14538333Y-12913762D01*
X14443095Y-12932809D01*
X14614524Y-12989952D02*
X14633571Y-12999476D01*
X14671667Y-12999476D01*
X14690714Y-12989952D01*
X14700238Y-12970905D01*
X14700238Y-12961381D01*
X14690714Y-12942333D01*
X14671667Y-12932809D01*
X14643095Y-12932809D01*
X14624048Y-12923286D01*
X14614524Y-12904238D01*
X14614524Y-12894714D01*
X14624048Y-12875667D01*
X14643095Y-12866143D01*
X14671667Y-12866143D01*
X14690714Y-12875667D01*
X14766905Y-13075667D02*
X14776428Y-13066143D01*
X14795476Y-13037571D01*
X14805000Y-13018524D01*
X14814524Y-12989952D01*
X14824048Y-12942333D01*
X14824048Y-12904238D01*
X14814524Y-12856619D01*
X14805000Y-12828048D01*
X14795476Y-12809000D01*
X14776428Y-12780428D01*
X14766905Y-12770905D01*
D14*
X9955000Y-13133000D02*
X9955000Y-13213000D01*
X9915000Y-13173000D02*
X9995000Y-13173000D01*
D11*
X10290714Y-13063476D02*
X10309762Y-13063476D01*
X10328810Y-13073000D01*
X10338333Y-13082524D01*
X10347857Y-13101571D01*
X10357381Y-13139667D01*
X10357381Y-13187286D01*
X10347857Y-13225381D01*
X10338333Y-13244428D01*
X10328810Y-13253952D01*
X10309762Y-13263476D01*
X10290714Y-13263476D01*
X10271667Y-13253952D01*
X10262143Y-13244428D01*
X10252619Y-13225381D01*
X10243095Y-13187286D01*
X10243095Y-13139667D01*
X10252619Y-13101571D01*
X10262143Y-13082524D01*
X10271667Y-13073000D01*
X10290714Y-13063476D01*
X10443095Y-13244428D02*
X10452619Y-13253952D01*
X10443095Y-13263476D01*
X10433571Y-13253952D01*
X10443095Y-13244428D01*
X10443095Y-13263476D01*
X10566905Y-13149190D02*
X10547857Y-13139667D01*
X10538333Y-13130143D01*
X10528810Y-13111095D01*
X10528810Y-13101571D01*
X10538333Y-13082524D01*
X10547857Y-13073000D01*
X10566905Y-13063476D01*
X10605000Y-13063476D01*
X10624048Y-13073000D01*
X10633571Y-13082524D01*
X10643095Y-13101571D01*
X10643095Y-13111095D01*
X10633571Y-13130143D01*
X10624048Y-13139667D01*
X10605000Y-13149190D01*
X10566905Y-13149190D01*
X10547857Y-13158714D01*
X10538333Y-13168238D01*
X10528810Y-13187286D01*
X10528810Y-13225381D01*
X10538333Y-13244428D01*
X10547857Y-13253952D01*
X10566905Y-13263476D01*
X10605000Y-13263476D01*
X10624048Y-13253952D01*
X10633571Y-13244428D01*
X10643095Y-13225381D01*
X10643095Y-13187286D01*
X10633571Y-13168238D01*
X10624048Y-13158714D01*
X10605000Y-13149190D01*
X10766905Y-13063476D02*
X10785952Y-13063476D01*
X10805000Y-13073000D01*
X10814524Y-13082524D01*
X10824048Y-13101571D01*
X10833571Y-13139667D01*
X10833571Y-13187286D01*
X10824048Y-13225381D01*
X10814524Y-13244428D01*
X10805000Y-13253952D01*
X10785952Y-13263476D01*
X10766905Y-13263476D01*
X10747857Y-13253952D01*
X10738333Y-13244428D01*
X10728810Y-13225381D01*
X10719286Y-13187286D01*
X10719286Y-13139667D01*
X10728810Y-13101571D01*
X10738333Y-13082524D01*
X10747857Y-13073000D01*
X10766905Y-13063476D01*
X10957381Y-13063476D02*
X10976429Y-13063476D01*
X10995476Y-13073000D01*
X11005000Y-13082524D01*
X11014524Y-13101571D01*
X11024048Y-13139667D01*
X11024048Y-13187286D01*
X11014524Y-13225381D01*
X11005000Y-13244428D01*
X10995476Y-13253952D01*
X10976429Y-13263476D01*
X10957381Y-13263476D01*
X10938333Y-13253952D01*
X10928810Y-13244428D01*
X10919286Y-13225381D01*
X10909762Y-13187286D01*
X10909762Y-13139667D01*
X10919286Y-13101571D01*
X10928810Y-13082524D01*
X10938333Y-13073000D01*
X10957381Y-13063476D01*
X11109762Y-13263476D02*
X11109762Y-13130143D01*
X11109762Y-13149190D02*
X11119286Y-13139667D01*
X11138333Y-13130143D01*
X11166905Y-13130143D01*
X11185952Y-13139667D01*
X11195476Y-13158714D01*
X11195476Y-13263476D01*
X11195476Y-13158714D02*
X11205000Y-13139667D01*
X11224048Y-13130143D01*
X11252619Y-13130143D01*
X11271667Y-13139667D01*
X11281190Y-13158714D01*
X11281190Y-13263476D01*
X11376428Y-13263476D02*
X11376428Y-13130143D01*
X11376428Y-13149190D02*
X11385952Y-13139667D01*
X11405000Y-13130143D01*
X11433571Y-13130143D01*
X11452619Y-13139667D01*
X11462143Y-13158714D01*
X11462143Y-13263476D01*
X11462143Y-13158714D02*
X11471667Y-13139667D01*
X11490714Y-13130143D01*
X11519286Y-13130143D01*
X11538333Y-13139667D01*
X11547857Y-13158714D01*
X11547857Y-13263476D01*
X11938333Y-13053952D02*
X11766905Y-13311095D01*
X12195476Y-13063476D02*
X12214524Y-13063476D01*
X12233571Y-13073000D01*
X12243095Y-13082524D01*
X12252619Y-13101571D01*
X12262143Y-13139667D01*
X12262143Y-13187286D01*
X12252619Y-13225381D01*
X12243095Y-13244428D01*
X12233571Y-13253952D01*
X12214524Y-13263476D01*
X12195476Y-13263476D01*
X12176428Y-13253952D01*
X12166905Y-13244428D01*
X12157381Y-13225381D01*
X12147857Y-13187286D01*
X12147857Y-13139667D01*
X12157381Y-13101571D01*
X12166905Y-13082524D01*
X12176428Y-13073000D01*
X12195476Y-13063476D01*
X12347857Y-13244428D02*
X12357381Y-13253952D01*
X12347857Y-13263476D01*
X12338333Y-13253952D01*
X12347857Y-13244428D01*
X12347857Y-13263476D01*
X12481190Y-13063476D02*
X12500238Y-13063476D01*
X12519286Y-13073000D01*
X12528809Y-13082524D01*
X12538333Y-13101571D01*
X12547857Y-13139667D01*
X12547857Y-13187286D01*
X12538333Y-13225381D01*
X12528809Y-13244428D01*
X12519286Y-13253952D01*
X12500238Y-13263476D01*
X12481190Y-13263476D01*
X12462143Y-13253952D01*
X12452619Y-13244428D01*
X12443095Y-13225381D01*
X12433571Y-13187286D01*
X12433571Y-13139667D01*
X12443095Y-13101571D01*
X12452619Y-13082524D01*
X12462143Y-13073000D01*
X12481190Y-13063476D01*
X12614524Y-13063476D02*
X12738333Y-13063476D01*
X12671667Y-13139667D01*
X12700238Y-13139667D01*
X12719286Y-13149190D01*
X12728809Y-13158714D01*
X12738333Y-13177762D01*
X12738333Y-13225381D01*
X12728809Y-13244428D01*
X12719286Y-13253952D01*
X12700238Y-13263476D01*
X12643095Y-13263476D01*
X12624048Y-13253952D01*
X12614524Y-13244428D01*
X12928809Y-13263476D02*
X12814524Y-13263476D01*
X12871667Y-13263476D02*
X12871667Y-13063476D01*
X12852619Y-13092048D01*
X12833571Y-13111095D01*
X12814524Y-13120619D01*
X13109762Y-13063476D02*
X13014524Y-13063476D01*
X13005000Y-13158714D01*
X13014524Y-13149190D01*
X13033571Y-13139667D01*
X13081190Y-13139667D01*
X13100238Y-13149190D01*
X13109762Y-13158714D01*
X13119286Y-13177762D01*
X13119286Y-13225381D01*
X13109762Y-13244428D01*
X13100238Y-13253952D01*
X13081190Y-13263476D01*
X13033571Y-13263476D01*
X13014524Y-13253952D01*
X13005000Y-13244428D01*
X13195476Y-13063476D02*
X13195476Y-13101571D01*
X13271667Y-13063476D02*
X13271667Y-13101571D01*
X13566905Y-13339667D02*
X13557381Y-13330143D01*
X13538333Y-13301571D01*
X13528809Y-13282524D01*
X13519286Y-13253952D01*
X13509762Y-13206333D01*
X13509762Y-13168238D01*
X13519286Y-13120619D01*
X13528809Y-13092048D01*
X13538333Y-13073000D01*
X13557381Y-13044428D01*
X13566905Y-13034905D01*
X13728809Y-13130143D02*
X13728809Y-13263476D01*
X13681190Y-13053952D02*
X13633571Y-13196809D01*
X13757381Y-13196809D01*
X13985952Y-13263476D02*
X13985952Y-13063476D01*
X14071667Y-13263476D02*
X14071667Y-13158714D01*
X14062143Y-13139667D01*
X14043095Y-13130143D01*
X14014524Y-13130143D01*
X13995476Y-13139667D01*
X13985952Y-13149190D01*
X14195476Y-13263476D02*
X14176428Y-13253952D01*
X14166905Y-13244428D01*
X14157381Y-13225381D01*
X14157381Y-13168238D01*
X14166905Y-13149190D01*
X14176428Y-13139667D01*
X14195476Y-13130143D01*
X14224048Y-13130143D01*
X14243095Y-13139667D01*
X14252619Y-13149190D01*
X14262143Y-13168238D01*
X14262143Y-13225381D01*
X14252619Y-13244428D01*
X14243095Y-13253952D01*
X14224048Y-13263476D01*
X14195476Y-13263476D01*
X14376428Y-13263476D02*
X14357381Y-13253952D01*
X14347857Y-13234905D01*
X14347857Y-13063476D01*
X14528809Y-13253952D02*
X14509762Y-13263476D01*
X14471667Y-13263476D01*
X14452619Y-13253952D01*
X14443095Y-13234905D01*
X14443095Y-13158714D01*
X14452619Y-13139667D01*
X14471667Y-13130143D01*
X14509762Y-13130143D01*
X14528809Y-13139667D01*
X14538333Y-13158714D01*
X14538333Y-13177762D01*
X14443095Y-13196809D01*
X14614524Y-13253952D02*
X14633571Y-13263476D01*
X14671667Y-13263476D01*
X14690714Y-13253952D01*
X14700238Y-13234905D01*
X14700238Y-13225381D01*
X14690714Y-13206333D01*
X14671667Y-13196809D01*
X14643095Y-13196809D01*
X14624048Y-13187286D01*
X14614524Y-13168238D01*
X14614524Y-13158714D01*
X14624048Y-13139667D01*
X14643095Y-13130143D01*
X14671667Y-13130143D01*
X14690714Y-13139667D01*
X14766905Y-13339667D02*
X14776428Y-13330143D01*
X14795476Y-13301571D01*
X14805000Y-13282524D01*
X14814524Y-13253952D01*
X14824048Y-13206333D01*
X14824048Y-13168238D01*
X14814524Y-13120619D01*
X14805000Y-13092048D01*
X14795476Y-13073000D01*
X14776428Y-13044428D01*
X14766905Y-13034905D01*
D15*
X9980356Y-13472356D02*
X9980356Y-13401644D01*
X9909644Y-13401644D01*
X9909644Y-13472356D01*
X9980356Y-13472356D01*
D11*
X10357381Y-13527476D02*
X10243095Y-13527476D01*
X10300238Y-13527476D02*
X10300238Y-13327476D01*
X10281190Y-13356048D01*
X10262143Y-13375095D01*
X10243095Y-13384619D01*
X10443095Y-13508428D02*
X10452619Y-13517952D01*
X10443095Y-13527476D01*
X10433571Y-13517952D01*
X10443095Y-13508428D01*
X10443095Y-13527476D01*
X10576429Y-13327476D02*
X10595476Y-13327476D01*
X10614524Y-13337000D01*
X10624048Y-13346524D01*
X10633571Y-13365571D01*
X10643095Y-13403667D01*
X10643095Y-13451286D01*
X10633571Y-13489381D01*
X10624048Y-13508428D01*
X10614524Y-13517952D01*
X10595476Y-13527476D01*
X10576429Y-13527476D01*
X10557381Y-13517952D01*
X10547857Y-13508428D01*
X10538333Y-13489381D01*
X10528810Y-13451286D01*
X10528810Y-13403667D01*
X10538333Y-13365571D01*
X10547857Y-13346524D01*
X10557381Y-13337000D01*
X10576429Y-13327476D01*
X10766905Y-13327476D02*
X10785952Y-13327476D01*
X10805000Y-13337000D01*
X10814524Y-13346524D01*
X10824048Y-13365571D01*
X10833571Y-13403667D01*
X10833571Y-13451286D01*
X10824048Y-13489381D01*
X10814524Y-13508428D01*
X10805000Y-13517952D01*
X10785952Y-13527476D01*
X10766905Y-13527476D01*
X10747857Y-13517952D01*
X10738333Y-13508428D01*
X10728810Y-13489381D01*
X10719286Y-13451286D01*
X10719286Y-13403667D01*
X10728810Y-13365571D01*
X10738333Y-13346524D01*
X10747857Y-13337000D01*
X10766905Y-13327476D01*
X10957381Y-13327476D02*
X10976429Y-13327476D01*
X10995476Y-13337000D01*
X11005000Y-13346524D01*
X11014524Y-13365571D01*
X11024048Y-13403667D01*
X11024048Y-13451286D01*
X11014524Y-13489381D01*
X11005000Y-13508428D01*
X10995476Y-13517952D01*
X10976429Y-13527476D01*
X10957381Y-13527476D01*
X10938333Y-13517952D01*
X10928810Y-13508428D01*
X10919286Y-13489381D01*
X10909762Y-13451286D01*
X10909762Y-13403667D01*
X10919286Y-13365571D01*
X10928810Y-13346524D01*
X10938333Y-13337000D01*
X10957381Y-13327476D01*
X11109762Y-13527476D02*
X11109762Y-13394143D01*
X11109762Y-13413190D02*
X11119286Y-13403667D01*
X11138333Y-13394143D01*
X11166905Y-13394143D01*
X11185952Y-13403667D01*
X11195476Y-13422714D01*
X11195476Y-13527476D01*
X11195476Y-13422714D02*
X11205000Y-13403667D01*
X11224048Y-13394143D01*
X11252619Y-13394143D01*
X11271667Y-13403667D01*
X11281190Y-13422714D01*
X11281190Y-13527476D01*
X11376428Y-13527476D02*
X11376428Y-13394143D01*
X11376428Y-13413190D02*
X11385952Y-13403667D01*
X11405000Y-13394143D01*
X11433571Y-13394143D01*
X11452619Y-13403667D01*
X11462143Y-13422714D01*
X11462143Y-13527476D01*
X11462143Y-13422714D02*
X11471667Y-13403667D01*
X11490714Y-13394143D01*
X11519286Y-13394143D01*
X11538333Y-13403667D01*
X11547857Y-13422714D01*
X11547857Y-13527476D01*
X11938333Y-13317952D02*
X11766905Y-13575095D01*
X12195476Y-13327476D02*
X12214524Y-13327476D01*
X12233571Y-13337000D01*
X12243095Y-13346524D01*
X12252619Y-13365571D01*
X12262143Y-13403667D01*
X12262143Y-13451286D01*
X12252619Y-13489381D01*
X12243095Y-13508428D01*
X12233571Y-13517952D01*
X12214524Y-13527476D01*
X12195476Y-13527476D01*
X12176428Y-13517952D01*
X12166905Y-13508428D01*
X12157381Y-13489381D01*
X12147857Y-13451286D01*
X12147857Y-13403667D01*
X12157381Y-13365571D01*
X12166905Y-13346524D01*
X12176428Y-13337000D01*
X12195476Y-13327476D01*
X12347857Y-13508428D02*
X12357381Y-13517952D01*
X12347857Y-13527476D01*
X12338333Y-13517952D01*
X12347857Y-13508428D01*
X12347857Y-13527476D01*
X12481190Y-13327476D02*
X12500238Y-13327476D01*
X12519286Y-13337000D01*
X12528809Y-13346524D01*
X12538333Y-13365571D01*
X12547857Y-13403667D01*
X12547857Y-13451286D01*
X12538333Y-13489381D01*
X12528809Y-13508428D01*
X12519286Y-13517952D01*
X12500238Y-13527476D01*
X12481190Y-13527476D01*
X12462143Y-13517952D01*
X12452619Y-13508428D01*
X12443095Y-13489381D01*
X12433571Y-13451286D01*
X12433571Y-13403667D01*
X12443095Y-13365571D01*
X12452619Y-13346524D01*
X12462143Y-13337000D01*
X12481190Y-13327476D01*
X12614524Y-13327476D02*
X12738333Y-13327476D01*
X12671667Y-13403667D01*
X12700238Y-13403667D01*
X12719286Y-13413190D01*
X12728809Y-13422714D01*
X12738333Y-13441762D01*
X12738333Y-13489381D01*
X12728809Y-13508428D01*
X12719286Y-13517952D01*
X12700238Y-13527476D01*
X12643095Y-13527476D01*
X12624048Y-13517952D01*
X12614524Y-13508428D01*
X12833571Y-13527476D02*
X12871667Y-13527476D01*
X12890714Y-13517952D01*
X12900238Y-13508428D01*
X12919286Y-13479857D01*
X12928809Y-13441762D01*
X12928809Y-13365571D01*
X12919286Y-13346524D01*
X12909762Y-13337000D01*
X12890714Y-13327476D01*
X12852619Y-13327476D01*
X12833571Y-13337000D01*
X12824048Y-13346524D01*
X12814524Y-13365571D01*
X12814524Y-13413190D01*
X12824048Y-13432238D01*
X12833571Y-13441762D01*
X12852619Y-13451286D01*
X12890714Y-13451286D01*
X12909762Y-13441762D01*
X12919286Y-13432238D01*
X12928809Y-13413190D01*
X13100238Y-13394143D02*
X13100238Y-13527476D01*
X13052619Y-13317952D02*
X13005000Y-13460809D01*
X13128809Y-13460809D01*
X13195476Y-13327476D02*
X13195476Y-13365571D01*
X13271667Y-13327476D02*
X13271667Y-13365571D01*
X13566905Y-13603667D02*
X13557381Y-13594143D01*
X13538333Y-13565571D01*
X13528809Y-13546524D01*
X13519286Y-13517952D01*
X13509762Y-13470333D01*
X13509762Y-13432238D01*
X13519286Y-13384619D01*
X13528809Y-13356048D01*
X13538333Y-13337000D01*
X13557381Y-13308428D01*
X13566905Y-13298905D01*
X13633571Y-13346524D02*
X13643095Y-13337000D01*
X13662143Y-13327476D01*
X13709762Y-13327476D01*
X13728809Y-13337000D01*
X13738333Y-13346524D01*
X13747857Y-13365571D01*
X13747857Y-13384619D01*
X13738333Y-13413190D01*
X13624048Y-13527476D01*
X13747857Y-13527476D01*
X13919286Y-13394143D02*
X13919286Y-13527476D01*
X13871667Y-13317952D02*
X13824048Y-13460809D01*
X13947857Y-13460809D01*
X14176428Y-13527476D02*
X14176428Y-13327476D01*
X14262143Y-13527476D02*
X14262143Y-13422714D01*
X14252619Y-13403667D01*
X14233571Y-13394143D01*
X14205000Y-13394143D01*
X14185952Y-13403667D01*
X14176428Y-13413190D01*
X14385952Y-13527476D02*
X14366905Y-13517952D01*
X14357381Y-13508428D01*
X14347857Y-13489381D01*
X14347857Y-13432238D01*
X14357381Y-13413190D01*
X14366905Y-13403667D01*
X14385952Y-13394143D01*
X14414524Y-13394143D01*
X14433571Y-13403667D01*
X14443095Y-13413190D01*
X14452619Y-13432238D01*
X14452619Y-13489381D01*
X14443095Y-13508428D01*
X14433571Y-13517952D01*
X14414524Y-13527476D01*
X14385952Y-13527476D01*
X14566905Y-13527476D02*
X14547857Y-13517952D01*
X14538333Y-13498905D01*
X14538333Y-13327476D01*
X14719286Y-13517952D02*
X14700238Y-13527476D01*
X14662143Y-13527476D01*
X14643095Y-13517952D01*
X14633571Y-13498905D01*
X14633571Y-13422714D01*
X14643095Y-13403667D01*
X14662143Y-13394143D01*
X14700238Y-13394143D01*
X14719286Y-13403667D01*
X14728809Y-13422714D01*
X14728809Y-13441762D01*
X14633571Y-13460809D01*
X14805000Y-13517952D02*
X14824048Y-13527476D01*
X14862143Y-13527476D01*
X14881190Y-13517952D01*
X14890714Y-13498905D01*
X14890714Y-13489381D01*
X14881190Y-13470333D01*
X14862143Y-13460809D01*
X14833571Y-13460809D01*
X14814524Y-13451286D01*
X14805000Y-13432238D01*
X14805000Y-13422714D01*
X14814524Y-13403667D01*
X14833571Y-13394143D01*
X14862143Y-13394143D01*
X14881190Y-13403667D01*
X14957381Y-13603667D02*
X14966905Y-13594143D01*
X14985952Y-13565571D01*
X14995476Y-13546524D01*
X15005000Y-13517952D01*
X15014524Y-13470333D01*
X15014524Y-13432238D01*
X15005000Y-13384619D01*
X14995476Y-13356048D01*
X14985952Y-13337000D01*
X14966905Y-13308428D01*
X14957381Y-13298905D01*
D16*
X9940000Y-13756000D02*
X9995000Y-13701000D01*
X9940000Y-13646000D01*
X9885000Y-13701000D01*
X9940000Y-13756000D01*
D11*
X10357381Y-13791476D02*
X10243095Y-13791476D01*
X10300238Y-13791476D02*
X10300238Y-13591476D01*
X10281190Y-13620048D01*
X10262143Y-13639095D01*
X10243095Y-13648619D01*
X10443095Y-13772428D02*
X10452619Y-13781952D01*
X10443095Y-13791476D01*
X10433571Y-13781952D01*
X10443095Y-13772428D01*
X10443095Y-13791476D01*
X10643095Y-13791476D02*
X10528810Y-13791476D01*
X10585952Y-13791476D02*
X10585952Y-13591476D01*
X10566905Y-13620048D01*
X10547857Y-13639095D01*
X10528810Y-13648619D01*
X10766905Y-13591476D02*
X10785952Y-13591476D01*
X10805000Y-13601000D01*
X10814524Y-13610524D01*
X10824048Y-13629571D01*
X10833571Y-13667667D01*
X10833571Y-13715286D01*
X10824048Y-13753381D01*
X10814524Y-13772428D01*
X10805000Y-13781952D01*
X10785952Y-13791476D01*
X10766905Y-13791476D01*
X10747857Y-13781952D01*
X10738333Y-13772428D01*
X10728810Y-13753381D01*
X10719286Y-13715286D01*
X10719286Y-13667667D01*
X10728810Y-13629571D01*
X10738333Y-13610524D01*
X10747857Y-13601000D01*
X10766905Y-13591476D01*
X10957381Y-13591476D02*
X10976429Y-13591476D01*
X10995476Y-13601000D01*
X11005000Y-13610524D01*
X11014524Y-13629571D01*
X11024048Y-13667667D01*
X11024048Y-13715286D01*
X11014524Y-13753381D01*
X11005000Y-13772428D01*
X10995476Y-13781952D01*
X10976429Y-13791476D01*
X10957381Y-13791476D01*
X10938333Y-13781952D01*
X10928810Y-13772428D01*
X10919286Y-13753381D01*
X10909762Y-13715286D01*
X10909762Y-13667667D01*
X10919286Y-13629571D01*
X10928810Y-13610524D01*
X10938333Y-13601000D01*
X10957381Y-13591476D01*
X11109762Y-13791476D02*
X11109762Y-13658143D01*
X11109762Y-13677190D02*
X11119286Y-13667667D01*
X11138333Y-13658143D01*
X11166905Y-13658143D01*
X11185952Y-13667667D01*
X11195476Y-13686714D01*
X11195476Y-13791476D01*
X11195476Y-13686714D02*
X11205000Y-13667667D01*
X11224048Y-13658143D01*
X11252619Y-13658143D01*
X11271667Y-13667667D01*
X11281190Y-13686714D01*
X11281190Y-13791476D01*
X11376428Y-13791476D02*
X11376428Y-13658143D01*
X11376428Y-13677190D02*
X11385952Y-13667667D01*
X11405000Y-13658143D01*
X11433571Y-13658143D01*
X11452619Y-13667667D01*
X11462143Y-13686714D01*
X11462143Y-13791476D01*
X11462143Y-13686714D02*
X11471667Y-13667667D01*
X11490714Y-13658143D01*
X11519286Y-13658143D01*
X11538333Y-13667667D01*
X11547857Y-13686714D01*
X11547857Y-13791476D01*
X11938333Y-13581952D02*
X11766905Y-13839095D01*
X12195476Y-13591476D02*
X12214524Y-13591476D01*
X12233571Y-13601000D01*
X12243095Y-13610524D01*
X12252619Y-13629571D01*
X12262143Y-13667667D01*
X12262143Y-13715286D01*
X12252619Y-13753381D01*
X12243095Y-13772428D01*
X12233571Y-13781952D01*
X12214524Y-13791476D01*
X12195476Y-13791476D01*
X12176428Y-13781952D01*
X12166905Y-13772428D01*
X12157381Y-13753381D01*
X12147857Y-13715286D01*
X12147857Y-13667667D01*
X12157381Y-13629571D01*
X12166905Y-13610524D01*
X12176428Y-13601000D01*
X12195476Y-13591476D01*
X12347857Y-13772428D02*
X12357381Y-13781952D01*
X12347857Y-13791476D01*
X12338333Y-13781952D01*
X12347857Y-13772428D01*
X12347857Y-13791476D01*
X12481190Y-13591476D02*
X12500238Y-13591476D01*
X12519286Y-13601000D01*
X12528809Y-13610524D01*
X12538333Y-13629571D01*
X12547857Y-13667667D01*
X12547857Y-13715286D01*
X12538333Y-13753381D01*
X12528809Y-13772428D01*
X12519286Y-13781952D01*
X12500238Y-13791476D01*
X12481190Y-13791476D01*
X12462143Y-13781952D01*
X12452619Y-13772428D01*
X12443095Y-13753381D01*
X12433571Y-13715286D01*
X12433571Y-13667667D01*
X12443095Y-13629571D01*
X12452619Y-13610524D01*
X12462143Y-13601000D01*
X12481190Y-13591476D01*
X12719286Y-13658143D02*
X12719286Y-13791476D01*
X12671667Y-13581952D02*
X12624048Y-13724809D01*
X12747857Y-13724809D01*
X12805000Y-13591476D02*
X12928809Y-13591476D01*
X12862143Y-13667667D01*
X12890714Y-13667667D01*
X12909762Y-13677190D01*
X12919286Y-13686714D01*
X12928809Y-13705762D01*
X12928809Y-13753381D01*
X12919286Y-13772428D01*
X12909762Y-13781952D01*
X12890714Y-13791476D01*
X12833571Y-13791476D01*
X12814524Y-13781952D01*
X12805000Y-13772428D01*
X12995476Y-13591476D02*
X13119286Y-13591476D01*
X13052619Y-13667667D01*
X13081190Y-13667667D01*
X13100238Y-13677190D01*
X13109762Y-13686714D01*
X13119286Y-13705762D01*
X13119286Y-13753381D01*
X13109762Y-13772428D01*
X13100238Y-13781952D01*
X13081190Y-13791476D01*
X13024048Y-13791476D01*
X13005000Y-13781952D01*
X12995476Y-13772428D01*
X13195476Y-13591476D02*
X13195476Y-13629571D01*
X13271667Y-13591476D02*
X13271667Y-13629571D01*
X13566905Y-13867667D02*
X13557381Y-13858143D01*
X13538333Y-13829571D01*
X13528809Y-13810524D01*
X13519286Y-13781952D01*
X13509762Y-13734333D01*
X13509762Y-13696238D01*
X13519286Y-13648619D01*
X13528809Y-13620048D01*
X13538333Y-13601000D01*
X13557381Y-13572428D01*
X13566905Y-13562905D01*
X13728809Y-13658143D02*
X13728809Y-13791476D01*
X13681190Y-13581952D02*
X13633571Y-13724809D01*
X13757381Y-13724809D01*
X13919286Y-13658143D02*
X13919286Y-13791476D01*
X13871667Y-13581952D02*
X13824048Y-13724809D01*
X13947857Y-13724809D01*
X14176428Y-13791476D02*
X14176428Y-13591476D01*
X14262143Y-13791476D02*
X14262143Y-13686714D01*
X14252619Y-13667667D01*
X14233571Y-13658143D01*
X14205000Y-13658143D01*
X14185952Y-13667667D01*
X14176428Y-13677190D01*
X14385952Y-13791476D02*
X14366905Y-13781952D01*
X14357381Y-13772428D01*
X14347857Y-13753381D01*
X14347857Y-13696238D01*
X14357381Y-13677190D01*
X14366905Y-13667667D01*
X14385952Y-13658143D01*
X14414524Y-13658143D01*
X14433571Y-13667667D01*
X14443095Y-13677190D01*
X14452619Y-13696238D01*
X14452619Y-13753381D01*
X14443095Y-13772428D01*
X14433571Y-13781952D01*
X14414524Y-13791476D01*
X14385952Y-13791476D01*
X14566905Y-13791476D02*
X14547857Y-13781952D01*
X14538333Y-13762905D01*
X14538333Y-13591476D01*
X14719286Y-13781952D02*
X14700238Y-13791476D01*
X14662143Y-13791476D01*
X14643095Y-13781952D01*
X14633571Y-13762905D01*
X14633571Y-13686714D01*
X14643095Y-13667667D01*
X14662143Y-13658143D01*
X14700238Y-13658143D01*
X14719286Y-13667667D01*
X14728809Y-13686714D01*
X14728809Y-13705762D01*
X14633571Y-13724809D01*
X14805000Y-13781952D02*
X14824048Y-13791476D01*
X14862143Y-13791476D01*
X14881190Y-13781952D01*
X14890714Y-13762905D01*
X14890714Y-13753381D01*
X14881190Y-13734333D01*
X14862143Y-13724809D01*
X14833571Y-13724809D01*
X14814524Y-13715286D01*
X14805000Y-13696238D01*
X14805000Y-13686714D01*
X14814524Y-13667667D01*
X14833571Y-13658143D01*
X14862143Y-13658143D01*
X14881190Y-13667667D01*
X14957381Y-13867667D02*
X14966905Y-13858143D01*
X14985952Y-13829571D01*
X14995476Y-13810524D01*
X15005000Y-13781952D01*
X15014524Y-13734333D01*
X15014524Y-13696238D01*
X15005000Y-13648619D01*
X14995476Y-13620048D01*
X14985952Y-13601000D01*
X14966905Y-13572428D01*
X14957381Y-13562905D01*
D17*
X9843000Y-13889000D02*
X9995000Y-14041000D01*
X9995000Y-13889000D02*
X9843000Y-14041000D01*
X9995000Y-13965000D02*
G75*
G03*
X9995000Y-13965000I-76000J0D01*
G01*
D11*
X10357381Y-14055476D02*
X10243095Y-14055476D01*
X10300238Y-14055476D02*
X10300238Y-13855476D01*
X10281190Y-13884048D01*
X10262143Y-13903095D01*
X10243095Y-13912619D01*
X10443095Y-14036428D02*
X10452619Y-14045952D01*
X10443095Y-14055476D01*
X10433571Y-14045952D01*
X10443095Y-14036428D01*
X10443095Y-14055476D01*
X10633571Y-13855476D02*
X10538333Y-13855476D01*
X10528810Y-13950714D01*
X10538333Y-13941190D01*
X10557381Y-13931667D01*
X10605000Y-13931667D01*
X10624048Y-13941190D01*
X10633571Y-13950714D01*
X10643095Y-13969762D01*
X10643095Y-14017381D01*
X10633571Y-14036428D01*
X10624048Y-14045952D01*
X10605000Y-14055476D01*
X10557381Y-14055476D01*
X10538333Y-14045952D01*
X10528810Y-14036428D01*
X10719286Y-13874524D02*
X10728810Y-13865000D01*
X10747857Y-13855476D01*
X10795476Y-13855476D01*
X10814524Y-13865000D01*
X10824048Y-13874524D01*
X10833571Y-13893571D01*
X10833571Y-13912619D01*
X10824048Y-13941190D01*
X10709762Y-14055476D01*
X10833571Y-14055476D01*
X10957381Y-13855476D02*
X10976429Y-13855476D01*
X10995476Y-13865000D01*
X11005000Y-13874524D01*
X11014524Y-13893571D01*
X11024048Y-13931667D01*
X11024048Y-13979286D01*
X11014524Y-14017381D01*
X11005000Y-14036428D01*
X10995476Y-14045952D01*
X10976429Y-14055476D01*
X10957381Y-14055476D01*
X10938333Y-14045952D01*
X10928810Y-14036428D01*
X10919286Y-14017381D01*
X10909762Y-13979286D01*
X10909762Y-13931667D01*
X10919286Y-13893571D01*
X10928810Y-13874524D01*
X10938333Y-13865000D01*
X10957381Y-13855476D01*
X11109762Y-14055476D02*
X11109762Y-13922143D01*
X11109762Y-13941190D02*
X11119286Y-13931667D01*
X11138333Y-13922143D01*
X11166905Y-13922143D01*
X11185952Y-13931667D01*
X11195476Y-13950714D01*
X11195476Y-14055476D01*
X11195476Y-13950714D02*
X11205000Y-13931667D01*
X11224048Y-13922143D01*
X11252619Y-13922143D01*
X11271667Y-13931667D01*
X11281190Y-13950714D01*
X11281190Y-14055476D01*
X11376428Y-14055476D02*
X11376428Y-13922143D01*
X11376428Y-13941190D02*
X11385952Y-13931667D01*
X11405000Y-13922143D01*
X11433571Y-13922143D01*
X11452619Y-13931667D01*
X11462143Y-13950714D01*
X11462143Y-14055476D01*
X11462143Y-13950714D02*
X11471667Y-13931667D01*
X11490714Y-13922143D01*
X11519286Y-13922143D01*
X11538333Y-13931667D01*
X11547857Y-13950714D01*
X11547857Y-14055476D01*
X11938333Y-13845952D02*
X11766905Y-14103095D01*
X12195476Y-13855476D02*
X12214524Y-13855476D01*
X12233571Y-13865000D01*
X12243095Y-13874524D01*
X12252619Y-13893571D01*
X12262143Y-13931667D01*
X12262143Y-13979286D01*
X12252619Y-14017381D01*
X12243095Y-14036428D01*
X12233571Y-14045952D01*
X12214524Y-14055476D01*
X12195476Y-14055476D01*
X12176428Y-14045952D01*
X12166905Y-14036428D01*
X12157381Y-14017381D01*
X12147857Y-13979286D01*
X12147857Y-13931667D01*
X12157381Y-13893571D01*
X12166905Y-13874524D01*
X12176428Y-13865000D01*
X12195476Y-13855476D01*
X12347857Y-14036428D02*
X12357381Y-14045952D01*
X12347857Y-14055476D01*
X12338333Y-14045952D01*
X12347857Y-14036428D01*
X12347857Y-14055476D01*
X12481190Y-13855476D02*
X12500238Y-13855476D01*
X12519286Y-13865000D01*
X12528809Y-13874524D01*
X12538333Y-13893571D01*
X12547857Y-13931667D01*
X12547857Y-13979286D01*
X12538333Y-14017381D01*
X12528809Y-14036428D01*
X12519286Y-14045952D01*
X12500238Y-14055476D01*
X12481190Y-14055476D01*
X12462143Y-14045952D01*
X12452619Y-14036428D01*
X12443095Y-14017381D01*
X12433571Y-13979286D01*
X12433571Y-13931667D01*
X12443095Y-13893571D01*
X12452619Y-13874524D01*
X12462143Y-13865000D01*
X12481190Y-13855476D01*
X12728809Y-13855476D02*
X12633571Y-13855476D01*
X12624048Y-13950714D01*
X12633571Y-13941190D01*
X12652619Y-13931667D01*
X12700238Y-13931667D01*
X12719286Y-13941190D01*
X12728809Y-13950714D01*
X12738333Y-13969762D01*
X12738333Y-14017381D01*
X12728809Y-14036428D01*
X12719286Y-14045952D01*
X12700238Y-14055476D01*
X12652619Y-14055476D01*
X12633571Y-14045952D01*
X12624048Y-14036428D01*
X12833571Y-14055476D02*
X12871667Y-14055476D01*
X12890714Y-14045952D01*
X12900238Y-14036428D01*
X12919286Y-14007857D01*
X12928809Y-13969762D01*
X12928809Y-13893571D01*
X12919286Y-13874524D01*
X12909762Y-13865000D01*
X12890714Y-13855476D01*
X12852619Y-13855476D01*
X12833571Y-13865000D01*
X12824048Y-13874524D01*
X12814524Y-13893571D01*
X12814524Y-13941190D01*
X12824048Y-13960238D01*
X12833571Y-13969762D01*
X12852619Y-13979286D01*
X12890714Y-13979286D01*
X12909762Y-13969762D01*
X12919286Y-13960238D01*
X12928809Y-13941190D01*
X13043095Y-13941190D02*
X13024048Y-13931667D01*
X13014524Y-13922143D01*
X13005000Y-13903095D01*
X13005000Y-13893571D01*
X13014524Y-13874524D01*
X13024048Y-13865000D01*
X13043095Y-13855476D01*
X13081190Y-13855476D01*
X13100238Y-13865000D01*
X13109762Y-13874524D01*
X13119286Y-13893571D01*
X13119286Y-13903095D01*
X13109762Y-13922143D01*
X13100238Y-13931667D01*
X13081190Y-13941190D01*
X13043095Y-13941190D01*
X13024048Y-13950714D01*
X13014524Y-13960238D01*
X13005000Y-13979286D01*
X13005000Y-14017381D01*
X13014524Y-14036428D01*
X13024048Y-14045952D01*
X13043095Y-14055476D01*
X13081190Y-14055476D01*
X13100238Y-14045952D01*
X13109762Y-14036428D01*
X13119286Y-14017381D01*
X13119286Y-13979286D01*
X13109762Y-13960238D01*
X13100238Y-13950714D01*
X13081190Y-13941190D01*
X13195476Y-13855476D02*
X13195476Y-13893571D01*
X13271667Y-13855476D02*
X13271667Y-13893571D01*
X13566905Y-14131667D02*
X13557381Y-14122143D01*
X13538333Y-14093571D01*
X13528809Y-14074524D01*
X13519286Y-14045952D01*
X13509762Y-13998333D01*
X13509762Y-13960238D01*
X13519286Y-13912619D01*
X13528809Y-13884048D01*
X13538333Y-13865000D01*
X13557381Y-13836428D01*
X13566905Y-13826905D01*
X13747857Y-14055476D02*
X13633571Y-14055476D01*
X13690714Y-14055476D02*
X13690714Y-13855476D01*
X13671667Y-13884048D01*
X13652619Y-13903095D01*
X13633571Y-13912619D01*
X13824048Y-13874524D02*
X13833571Y-13865000D01*
X13852619Y-13855476D01*
X13900238Y-13855476D01*
X13919286Y-13865000D01*
X13928809Y-13874524D01*
X13938333Y-13893571D01*
X13938333Y-13912619D01*
X13928809Y-13941190D01*
X13814524Y-14055476D01*
X13938333Y-14055476D01*
X14176428Y-14055476D02*
X14176428Y-13855476D01*
X14262143Y-14055476D02*
X14262143Y-13950714D01*
X14252619Y-13931667D01*
X14233571Y-13922143D01*
X14205000Y-13922143D01*
X14185952Y-13931667D01*
X14176428Y-13941190D01*
X14385952Y-14055476D02*
X14366905Y-14045952D01*
X14357381Y-14036428D01*
X14347857Y-14017381D01*
X14347857Y-13960238D01*
X14357381Y-13941190D01*
X14366905Y-13931667D01*
X14385952Y-13922143D01*
X14414524Y-13922143D01*
X14433571Y-13931667D01*
X14443095Y-13941190D01*
X14452619Y-13960238D01*
X14452619Y-14017381D01*
X14443095Y-14036428D01*
X14433571Y-14045952D01*
X14414524Y-14055476D01*
X14385952Y-14055476D01*
X14566905Y-14055476D02*
X14547857Y-14045952D01*
X14538333Y-14026905D01*
X14538333Y-13855476D01*
X14719286Y-14045952D02*
X14700238Y-14055476D01*
X14662143Y-14055476D01*
X14643095Y-14045952D01*
X14633571Y-14026905D01*
X14633571Y-13950714D01*
X14643095Y-13931667D01*
X14662143Y-13922143D01*
X14700238Y-13922143D01*
X14719286Y-13931667D01*
X14728809Y-13950714D01*
X14728809Y-13969762D01*
X14633571Y-13988809D01*
X14805000Y-14045952D02*
X14824048Y-14055476D01*
X14862143Y-14055476D01*
X14881190Y-14045952D01*
X14890714Y-14026905D01*
X14890714Y-14017381D01*
X14881190Y-13998333D01*
X14862143Y-13988809D01*
X14833571Y-13988809D01*
X14814524Y-13979286D01*
X14805000Y-13960238D01*
X14805000Y-13950714D01*
X14814524Y-13931667D01*
X14833571Y-13922143D01*
X14862143Y-13922143D01*
X14881190Y-13931667D01*
X14957381Y-14131667D02*
X14966905Y-14122143D01*
X14985952Y-14093571D01*
X14995476Y-14074524D01*
X15005000Y-14045952D01*
X15014524Y-13998333D01*
X15014524Y-13960238D01*
X15005000Y-13912619D01*
X14995476Y-13884048D01*
X14985952Y-13865000D01*
X14966905Y-13836428D01*
X14957381Y-13826905D01*
M02*
