%FSLAX45Y45*%
G04 Gerber Fmt 4.5, Leading zero omitted, Abs format (unit mm)*
G04 Created by KiCad (PCBNEW (6.0.6)) date 2022-07-07 23:48:39*
%MOMM*%
%LPD*%
G01*
G04 APERTURE LIST*
%TA.AperFunction,Profile*%
%ADD10C,0.100000*%
%TD*%
%ADD11C,0.200000*%
%ADD12C,0.050000*%
%ADD13C,0.100000*%
%ADD14C,0.110000*%
%ADD15C,0.152000*%
G04 APERTURE END LIST*
D10*
X15250000Y-9250000D02*
G75*
G03*
X15000000Y-9000000I-250000J0D01*
G01*
X15040000Y-13600000D02*
G75*
G03*
X15040000Y-13600000I-160000J0D01*
G01*
X6750000Y-9000000D02*
G75*
G03*
X6500000Y-9250000I0J-250000D01*
G01*
X7060000Y-13600000D02*
G75*
G03*
X7060000Y-13600000I-160000J0D01*
G01*
X15250000Y-9250000D02*
X15250000Y-13750000D01*
X6750000Y-9000000D02*
X15000000Y-9000000D01*
X15000000Y-14000000D02*
X6750000Y-14000000D01*
X6500000Y-13750000D02*
X6500000Y-9250000D01*
X15000000Y-14000000D02*
G75*
G03*
X15250000Y-13750000I0J250000D01*
G01*
X6500000Y-13750000D02*
G75*
G03*
X6750000Y-14000000I250000J0D01*
G01*
X7060000Y-9400000D02*
G75*
G03*
X7060000Y-9400000I-160000J0D01*
G01*
X15040000Y-9400000D02*
G75*
G03*
X15040000Y-9400000I-160000J0D01*
G01*
D11*
D12*
X7275000Y-9175000D02*
X7325000Y-9225000D01*
X7325000Y-9175000D02*
X7275000Y-9225000D01*
X12015000Y-10335000D02*
X12065000Y-10385000D01*
X12065000Y-10335000D02*
X12015000Y-10385000D01*
X12070000Y-9780000D02*
X12120000Y-9830000D01*
X12120000Y-9780000D02*
X12070000Y-9830000D01*
X12225000Y-10375000D02*
X12275000Y-10425000D01*
X12275000Y-10375000D02*
X12225000Y-10425000D01*
D13*
X8781000Y-11385000D02*
G75*
G03*
X8781000Y-11385000I-50000J0D01*
G01*
X8781000Y-12655000D02*
G75*
G03*
X8781000Y-12655000I-50000J0D01*
G01*
X9035000Y-11385000D02*
G75*
G03*
X9035000Y-11385000I-50000J0D01*
G01*
X9035000Y-12655000D02*
G75*
G03*
X9035000Y-12655000I-50000J0D01*
G01*
X9289000Y-11385000D02*
G75*
G03*
X9289000Y-11385000I-50000J0D01*
G01*
X9289000Y-12655000D02*
G75*
G03*
X9289000Y-12655000I-50000J0D01*
G01*
X9543000Y-11385000D02*
G75*
G03*
X9543000Y-11385000I-50000J0D01*
G01*
X9543000Y-12655000D02*
G75*
G03*
X9543000Y-12655000I-50000J0D01*
G01*
X9797000Y-11385000D02*
G75*
G03*
X9797000Y-11385000I-50000J0D01*
G01*
X9797000Y-12655000D02*
G75*
G03*
X9797000Y-12655000I-50000J0D01*
G01*
X10051000Y-11385000D02*
G75*
G03*
X10051000Y-11385000I-50000J0D01*
G01*
X10051000Y-12655000D02*
G75*
G03*
X10051000Y-12655000I-50000J0D01*
G01*
X10305000Y-11385000D02*
G75*
G03*
X10305000Y-11385000I-50000J0D01*
G01*
X10305000Y-12655000D02*
G75*
G03*
X10305000Y-12655000I-50000J0D01*
G01*
X10559000Y-11385000D02*
G75*
G03*
X10559000Y-11385000I-50000J0D01*
G01*
X10559000Y-12655000D02*
G75*
G03*
X10559000Y-12655000I-50000J0D01*
G01*
X11600000Y-9537500D02*
G75*
G03*
X11600000Y-9537500I-50000J0D01*
G01*
X11600000Y-9791500D02*
G75*
G03*
X11600000Y-9791500I-50000J0D01*
G01*
X11600000Y-10045500D02*
G75*
G03*
X11600000Y-10045500I-50000J0D01*
G01*
X11600000Y-10299500D02*
G75*
G03*
X11600000Y-10299500I-50000J0D01*
G01*
X11600000Y-11536768D02*
G75*
G03*
X11600000Y-11536768I-50000J0D01*
G01*
X11600000Y-12036768D02*
G75*
G03*
X11600000Y-12036768I-50000J0D01*
G01*
X11854000Y-9537500D02*
G75*
G03*
X11854000Y-9537500I-50000J0D01*
G01*
X11854000Y-9791500D02*
G75*
G03*
X11854000Y-9791500I-50000J0D01*
G01*
X11854000Y-10045500D02*
G75*
G03*
X11854000Y-10045500I-50000J0D01*
G01*
X11854000Y-10299500D02*
G75*
G03*
X11854000Y-10299500I-50000J0D01*
G01*
D14*
X7430000Y-9395000D02*
X7430000Y-9505000D01*
X7375000Y-9450000D02*
X7485000Y-9450000D01*
X7430000Y-10919000D02*
X7430000Y-11029000D01*
X7375000Y-10974000D02*
X7485000Y-10974000D01*
X7447780Y-10187480D02*
X7447780Y-10297480D01*
X7392780Y-10242480D02*
X7502780Y-10242480D01*
X7447780Y-10385600D02*
X7447780Y-10495600D01*
X7392780Y-10440600D02*
X7502780Y-10440600D01*
X7684000Y-9395000D02*
X7684000Y-9505000D01*
X7629000Y-9450000D02*
X7739000Y-9450000D01*
X7684000Y-9649000D02*
X7684000Y-9759000D01*
X7629000Y-9704000D02*
X7739000Y-9704000D01*
X7684000Y-10919000D02*
X7684000Y-11029000D01*
X7629000Y-10974000D02*
X7739000Y-10974000D01*
X7938000Y-9395000D02*
X7938000Y-9505000D01*
X7883000Y-9450000D02*
X7993000Y-9450000D01*
X7938000Y-10919000D02*
X7938000Y-11029000D01*
X7883000Y-10974000D02*
X7993000Y-10974000D01*
X8192000Y-9395000D02*
X8192000Y-9505000D01*
X8137000Y-9450000D02*
X8247000Y-9450000D01*
X8192000Y-9649000D02*
X8192000Y-9759000D01*
X8137000Y-9704000D02*
X8247000Y-9704000D01*
X8192000Y-10919000D02*
X8192000Y-11029000D01*
X8137000Y-10974000D02*
X8247000Y-10974000D01*
X8446000Y-9395000D02*
X8446000Y-9505000D01*
X8391000Y-9450000D02*
X8501000Y-9450000D01*
X8446000Y-9649000D02*
X8446000Y-9759000D01*
X8391000Y-9704000D02*
X8501000Y-9704000D01*
X8446000Y-10919000D02*
X8446000Y-11029000D01*
X8391000Y-10974000D02*
X8501000Y-10974000D01*
X8700000Y-9395000D02*
X8700000Y-9505000D01*
X8645000Y-9450000D02*
X8755000Y-9450000D01*
X8700000Y-9649000D02*
X8700000Y-9759000D01*
X8645000Y-9704000D02*
X8755000Y-9704000D01*
X8700000Y-10919000D02*
X8700000Y-11029000D01*
X8645000Y-10974000D02*
X8755000Y-10974000D01*
X8954000Y-9395000D02*
X8954000Y-9505000D01*
X8899000Y-9450000D02*
X9009000Y-9450000D01*
X8954000Y-10919000D02*
X8954000Y-11029000D01*
X8899000Y-10974000D02*
X9009000Y-10974000D01*
X9208000Y-9395000D02*
X9208000Y-9505000D01*
X9153000Y-9450000D02*
X9263000Y-9450000D01*
X9208000Y-10919000D02*
X9208000Y-11029000D01*
X9153000Y-10974000D02*
X9263000Y-10974000D01*
X9462000Y-9395000D02*
X9462000Y-9505000D01*
X9407000Y-9450000D02*
X9517000Y-9450000D01*
X9462000Y-10919000D02*
X9462000Y-11029000D01*
X9407000Y-10974000D02*
X9517000Y-10974000D01*
X9716000Y-9395000D02*
X9716000Y-9505000D01*
X9661000Y-9450000D02*
X9771000Y-9450000D01*
X9716000Y-10919000D02*
X9716000Y-11029000D01*
X9661000Y-10974000D02*
X9771000Y-10974000D01*
X9970000Y-9395000D02*
X9970000Y-9505000D01*
X9915000Y-9450000D02*
X10025000Y-9450000D01*
X9970000Y-10919000D02*
X9970000Y-11029000D01*
X9915000Y-10974000D02*
X10025000Y-10974000D01*
X10224000Y-9395000D02*
X10224000Y-9505000D01*
X10169000Y-9450000D02*
X10279000Y-9450000D01*
X10224000Y-10919000D02*
X10224000Y-11029000D01*
X10169000Y-10974000D02*
X10279000Y-10974000D01*
X10478000Y-9395000D02*
X10478000Y-9505000D01*
X10423000Y-9450000D02*
X10533000Y-9450000D01*
X10478000Y-10919000D02*
X10478000Y-11029000D01*
X10423000Y-10974000D02*
X10533000Y-10974000D01*
X10732000Y-9395000D02*
X10732000Y-9505000D01*
X10677000Y-9450000D02*
X10787000Y-9450000D01*
X10732000Y-9649000D02*
X10732000Y-9759000D01*
X10677000Y-9704000D02*
X10787000Y-9704000D01*
X10732000Y-9903000D02*
X10732000Y-10013000D01*
X10677000Y-9958000D02*
X10787000Y-9958000D01*
X10732000Y-10157000D02*
X10732000Y-10267000D01*
X10677000Y-10212000D02*
X10787000Y-10212000D01*
X10732000Y-10411000D02*
X10732000Y-10521000D01*
X10677000Y-10466000D02*
X10787000Y-10466000D01*
X10732000Y-10665000D02*
X10732000Y-10775000D01*
X10677000Y-10720000D02*
X10787000Y-10720000D01*
X10732000Y-10919000D02*
X10732000Y-11029000D01*
X10677000Y-10974000D02*
X10787000Y-10974000D01*
D15*
X7679741Y-13403741D02*
X7679741Y-13296259D01*
X7572259Y-13296259D01*
X7572259Y-13403741D01*
X7679741Y-13403741D01*
X7803741Y-11903741D02*
X7803741Y-11796259D01*
X7696259Y-11796259D01*
X7696259Y-11903741D01*
X7803741Y-11903741D01*
X7803741Y-12411741D02*
X7803741Y-12304259D01*
X7696259Y-12304259D01*
X7696259Y-12411741D01*
X7803741Y-12411741D01*
X8187741Y-13403741D02*
X8187741Y-13296259D01*
X8080259Y-13296259D01*
X8080259Y-13403741D01*
X8187741Y-13403741D01*
X8695741Y-13403741D02*
X8695741Y-13296259D01*
X8588259Y-13296259D01*
X8588259Y-13403741D01*
X8695741Y-13403741D01*
X9203741Y-13403741D02*
X9203741Y-13296259D01*
X9096259Y-13296259D01*
X9096259Y-13403741D01*
X9203741Y-13403741D01*
D11*
X6752619Y-14315476D02*
X6752619Y-14115476D01*
X6800238Y-14115476D01*
X6828809Y-14125000D01*
X6847857Y-14144048D01*
X6857381Y-14163095D01*
X6866905Y-14201190D01*
X6866905Y-14229762D01*
X6857381Y-14267857D01*
X6847857Y-14286905D01*
X6828809Y-14305952D01*
X6800238Y-14315476D01*
X6752619Y-14315476D01*
X6952619Y-14315476D02*
X6952619Y-14182143D01*
X6952619Y-14220238D02*
X6962143Y-14201190D01*
X6971667Y-14191667D01*
X6990714Y-14182143D01*
X7009762Y-14182143D01*
X7076428Y-14315476D02*
X7076428Y-14182143D01*
X7076428Y-14115476D02*
X7066905Y-14125000D01*
X7076428Y-14134524D01*
X7085952Y-14125000D01*
X7076428Y-14115476D01*
X7076428Y-14134524D01*
X7200238Y-14315476D02*
X7181190Y-14305952D01*
X7171667Y-14286905D01*
X7171667Y-14115476D01*
X7305000Y-14315476D02*
X7285952Y-14305952D01*
X7276428Y-14286905D01*
X7276428Y-14115476D01*
X7533571Y-14315476D02*
X7533571Y-14115476D01*
X7600238Y-14258333D01*
X7666905Y-14115476D01*
X7666905Y-14315476D01*
X7847857Y-14315476D02*
X7847857Y-14210714D01*
X7838333Y-14191667D01*
X7819286Y-14182143D01*
X7781190Y-14182143D01*
X7762143Y-14191667D01*
X7847857Y-14305952D02*
X7828809Y-14315476D01*
X7781190Y-14315476D01*
X7762143Y-14305952D01*
X7752619Y-14286905D01*
X7752619Y-14267857D01*
X7762143Y-14248809D01*
X7781190Y-14239286D01*
X7828809Y-14239286D01*
X7847857Y-14229762D01*
X7943095Y-14182143D02*
X7943095Y-14382143D01*
X7943095Y-14191667D02*
X7962143Y-14182143D01*
X8000238Y-14182143D01*
X8019286Y-14191667D01*
X8028809Y-14201190D01*
X8038333Y-14220238D01*
X8038333Y-14277381D01*
X8028809Y-14296428D01*
X8019286Y-14305952D01*
X8000238Y-14315476D01*
X7962143Y-14315476D01*
X7943095Y-14305952D01*
X8124048Y-14296428D02*
X8133571Y-14305952D01*
X8124048Y-14315476D01*
X8114524Y-14305952D01*
X8124048Y-14296428D01*
X8124048Y-14315476D01*
X8124048Y-14191667D02*
X8133571Y-14201190D01*
X8124048Y-14210714D01*
X8114524Y-14201190D01*
X8124048Y-14191667D01*
X8124048Y-14210714D01*
D12*
X6445000Y-14620000D02*
X6495000Y-14670000D01*
X6495000Y-14620000D02*
X6445000Y-14670000D01*
D11*
X6790714Y-14535476D02*
X6809762Y-14535476D01*
X6828809Y-14545000D01*
X6838333Y-14554524D01*
X6847857Y-14573571D01*
X6857381Y-14611667D01*
X6857381Y-14659286D01*
X6847857Y-14697381D01*
X6838333Y-14716428D01*
X6828809Y-14725952D01*
X6809762Y-14735476D01*
X6790714Y-14735476D01*
X6771667Y-14725952D01*
X6762143Y-14716428D01*
X6752619Y-14697381D01*
X6743095Y-14659286D01*
X6743095Y-14611667D01*
X6752619Y-14573571D01*
X6762143Y-14554524D01*
X6771667Y-14545000D01*
X6790714Y-14535476D01*
X6943095Y-14716428D02*
X6952619Y-14725952D01*
X6943095Y-14735476D01*
X6933571Y-14725952D01*
X6943095Y-14716428D01*
X6943095Y-14735476D01*
X7133571Y-14535476D02*
X7038333Y-14535476D01*
X7028809Y-14630714D01*
X7038333Y-14621190D01*
X7057381Y-14611667D01*
X7105000Y-14611667D01*
X7124048Y-14621190D01*
X7133571Y-14630714D01*
X7143095Y-14649762D01*
X7143095Y-14697381D01*
X7133571Y-14716428D01*
X7124048Y-14725952D01*
X7105000Y-14735476D01*
X7057381Y-14735476D01*
X7038333Y-14725952D01*
X7028809Y-14716428D01*
X7266905Y-14535476D02*
X7285952Y-14535476D01*
X7305000Y-14545000D01*
X7314524Y-14554524D01*
X7324048Y-14573571D01*
X7333571Y-14611667D01*
X7333571Y-14659286D01*
X7324048Y-14697381D01*
X7314524Y-14716428D01*
X7305000Y-14725952D01*
X7285952Y-14735476D01*
X7266905Y-14735476D01*
X7247857Y-14725952D01*
X7238333Y-14716428D01*
X7228809Y-14697381D01*
X7219286Y-14659286D01*
X7219286Y-14611667D01*
X7228809Y-14573571D01*
X7238333Y-14554524D01*
X7247857Y-14545000D01*
X7266905Y-14535476D01*
X7457381Y-14535476D02*
X7476428Y-14535476D01*
X7495476Y-14545000D01*
X7505000Y-14554524D01*
X7514524Y-14573571D01*
X7524048Y-14611667D01*
X7524048Y-14659286D01*
X7514524Y-14697381D01*
X7505000Y-14716428D01*
X7495476Y-14725952D01*
X7476428Y-14735476D01*
X7457381Y-14735476D01*
X7438333Y-14725952D01*
X7428809Y-14716428D01*
X7419286Y-14697381D01*
X7409762Y-14659286D01*
X7409762Y-14611667D01*
X7419286Y-14573571D01*
X7428809Y-14554524D01*
X7438333Y-14545000D01*
X7457381Y-14535476D01*
X7609762Y-14735476D02*
X7609762Y-14602143D01*
X7609762Y-14621190D02*
X7619286Y-14611667D01*
X7638333Y-14602143D01*
X7666905Y-14602143D01*
X7685952Y-14611667D01*
X7695476Y-14630714D01*
X7695476Y-14735476D01*
X7695476Y-14630714D02*
X7705000Y-14611667D01*
X7724048Y-14602143D01*
X7752619Y-14602143D01*
X7771667Y-14611667D01*
X7781190Y-14630714D01*
X7781190Y-14735476D01*
X7876428Y-14735476D02*
X7876428Y-14602143D01*
X7876428Y-14621190D02*
X7885952Y-14611667D01*
X7905000Y-14602143D01*
X7933571Y-14602143D01*
X7952619Y-14611667D01*
X7962143Y-14630714D01*
X7962143Y-14735476D01*
X7962143Y-14630714D02*
X7971667Y-14611667D01*
X7990714Y-14602143D01*
X8019286Y-14602143D01*
X8038333Y-14611667D01*
X8047857Y-14630714D01*
X8047857Y-14735476D01*
X8438333Y-14525952D02*
X8266905Y-14783095D01*
X8695476Y-14535476D02*
X8714524Y-14535476D01*
X8733571Y-14545000D01*
X8743095Y-14554524D01*
X8752619Y-14573571D01*
X8762143Y-14611667D01*
X8762143Y-14659286D01*
X8752619Y-14697381D01*
X8743095Y-14716428D01*
X8733571Y-14725952D01*
X8714524Y-14735476D01*
X8695476Y-14735476D01*
X8676429Y-14725952D01*
X8666905Y-14716428D01*
X8657381Y-14697381D01*
X8647857Y-14659286D01*
X8647857Y-14611667D01*
X8657381Y-14573571D01*
X8666905Y-14554524D01*
X8676429Y-14545000D01*
X8695476Y-14535476D01*
X8847857Y-14716428D02*
X8857381Y-14725952D01*
X8847857Y-14735476D01*
X8838333Y-14725952D01*
X8847857Y-14716428D01*
X8847857Y-14735476D01*
X8981190Y-14535476D02*
X9000238Y-14535476D01*
X9019286Y-14545000D01*
X9028810Y-14554524D01*
X9038333Y-14573571D01*
X9047857Y-14611667D01*
X9047857Y-14659286D01*
X9038333Y-14697381D01*
X9028810Y-14716428D01*
X9019286Y-14725952D01*
X9000238Y-14735476D01*
X8981190Y-14735476D01*
X8962143Y-14725952D01*
X8952619Y-14716428D01*
X8943095Y-14697381D01*
X8933571Y-14659286D01*
X8933571Y-14611667D01*
X8943095Y-14573571D01*
X8952619Y-14554524D01*
X8962143Y-14545000D01*
X8981190Y-14535476D01*
X9238333Y-14735476D02*
X9124048Y-14735476D01*
X9181190Y-14735476D02*
X9181190Y-14535476D01*
X9162143Y-14564048D01*
X9143095Y-14583095D01*
X9124048Y-14592619D01*
X9333571Y-14735476D02*
X9371667Y-14735476D01*
X9390714Y-14725952D01*
X9400238Y-14716428D01*
X9419286Y-14687857D01*
X9428810Y-14649762D01*
X9428810Y-14573571D01*
X9419286Y-14554524D01*
X9409762Y-14545000D01*
X9390714Y-14535476D01*
X9352619Y-14535476D01*
X9333571Y-14545000D01*
X9324048Y-14554524D01*
X9314524Y-14573571D01*
X9314524Y-14621190D01*
X9324048Y-14640238D01*
X9333571Y-14649762D01*
X9352619Y-14659286D01*
X9390714Y-14659286D01*
X9409762Y-14649762D01*
X9419286Y-14640238D01*
X9428810Y-14621190D01*
X9495476Y-14535476D02*
X9628810Y-14535476D01*
X9543095Y-14735476D01*
X9695476Y-14535476D02*
X9695476Y-14573571D01*
X9771667Y-14535476D02*
X9771667Y-14573571D01*
X10066905Y-14811667D02*
X10057381Y-14802143D01*
X10038333Y-14773571D01*
X10028810Y-14754524D01*
X10019286Y-14725952D01*
X10009762Y-14678333D01*
X10009762Y-14640238D01*
X10019286Y-14592619D01*
X10028810Y-14564048D01*
X10038333Y-14545000D01*
X10057381Y-14516428D01*
X10066905Y-14506905D01*
X10228810Y-14602143D02*
X10228810Y-14735476D01*
X10181190Y-14525952D02*
X10133571Y-14668809D01*
X10257381Y-14668809D01*
X10485952Y-14735476D02*
X10485952Y-14535476D01*
X10571667Y-14735476D02*
X10571667Y-14630714D01*
X10562143Y-14611667D01*
X10543095Y-14602143D01*
X10514524Y-14602143D01*
X10495476Y-14611667D01*
X10485952Y-14621190D01*
X10695476Y-14735476D02*
X10676429Y-14725952D01*
X10666905Y-14716428D01*
X10657381Y-14697381D01*
X10657381Y-14640238D01*
X10666905Y-14621190D01*
X10676429Y-14611667D01*
X10695476Y-14602143D01*
X10724048Y-14602143D01*
X10743095Y-14611667D01*
X10752619Y-14621190D01*
X10762143Y-14640238D01*
X10762143Y-14697381D01*
X10752619Y-14716428D01*
X10743095Y-14725952D01*
X10724048Y-14735476D01*
X10695476Y-14735476D01*
X10876429Y-14735476D02*
X10857381Y-14725952D01*
X10847857Y-14706905D01*
X10847857Y-14535476D01*
X11028810Y-14725952D02*
X11009762Y-14735476D01*
X10971667Y-14735476D01*
X10952619Y-14725952D01*
X10943095Y-14706905D01*
X10943095Y-14630714D01*
X10952619Y-14611667D01*
X10971667Y-14602143D01*
X11009762Y-14602143D01*
X11028810Y-14611667D01*
X11038333Y-14630714D01*
X11038333Y-14649762D01*
X10943095Y-14668809D01*
X11114524Y-14725952D02*
X11133571Y-14735476D01*
X11171667Y-14735476D01*
X11190714Y-14725952D01*
X11200238Y-14706905D01*
X11200238Y-14697381D01*
X11190714Y-14678333D01*
X11171667Y-14668809D01*
X11143095Y-14668809D01*
X11124048Y-14659286D01*
X11114524Y-14640238D01*
X11114524Y-14630714D01*
X11124048Y-14611667D01*
X11143095Y-14602143D01*
X11171667Y-14602143D01*
X11190714Y-14611667D01*
X11266905Y-14811667D02*
X11276428Y-14802143D01*
X11295476Y-14773571D01*
X11305000Y-14754524D01*
X11314524Y-14725952D01*
X11324048Y-14678333D01*
X11324048Y-14640238D01*
X11314524Y-14592619D01*
X11305000Y-14564048D01*
X11295476Y-14545000D01*
X11276428Y-14516428D01*
X11266905Y-14506905D01*
D13*
X6495000Y-14909000D02*
G75*
G03*
X6495000Y-14909000I-50000J0D01*
G01*
D11*
X6857381Y-14999476D02*
X6743095Y-14999476D01*
X6800238Y-14999476D02*
X6800238Y-14799476D01*
X6781190Y-14828048D01*
X6762143Y-14847095D01*
X6743095Y-14856619D01*
X6943095Y-14980428D02*
X6952619Y-14989952D01*
X6943095Y-14999476D01*
X6933571Y-14989952D01*
X6943095Y-14980428D01*
X6943095Y-14999476D01*
X7076428Y-14799476D02*
X7095476Y-14799476D01*
X7114524Y-14809000D01*
X7124048Y-14818524D01*
X7133571Y-14837571D01*
X7143095Y-14875667D01*
X7143095Y-14923286D01*
X7133571Y-14961381D01*
X7124048Y-14980428D01*
X7114524Y-14989952D01*
X7095476Y-14999476D01*
X7076428Y-14999476D01*
X7057381Y-14989952D01*
X7047857Y-14980428D01*
X7038333Y-14961381D01*
X7028809Y-14923286D01*
X7028809Y-14875667D01*
X7038333Y-14837571D01*
X7047857Y-14818524D01*
X7057381Y-14809000D01*
X7076428Y-14799476D01*
X7266905Y-14799476D02*
X7285952Y-14799476D01*
X7305000Y-14809000D01*
X7314524Y-14818524D01*
X7324048Y-14837571D01*
X7333571Y-14875667D01*
X7333571Y-14923286D01*
X7324048Y-14961381D01*
X7314524Y-14980428D01*
X7305000Y-14989952D01*
X7285952Y-14999476D01*
X7266905Y-14999476D01*
X7247857Y-14989952D01*
X7238333Y-14980428D01*
X7228809Y-14961381D01*
X7219286Y-14923286D01*
X7219286Y-14875667D01*
X7228809Y-14837571D01*
X7238333Y-14818524D01*
X7247857Y-14809000D01*
X7266905Y-14799476D01*
X7457381Y-14799476D02*
X7476428Y-14799476D01*
X7495476Y-14809000D01*
X7505000Y-14818524D01*
X7514524Y-14837571D01*
X7524048Y-14875667D01*
X7524048Y-14923286D01*
X7514524Y-14961381D01*
X7505000Y-14980428D01*
X7495476Y-14989952D01*
X7476428Y-14999476D01*
X7457381Y-14999476D01*
X7438333Y-14989952D01*
X7428809Y-14980428D01*
X7419286Y-14961381D01*
X7409762Y-14923286D01*
X7409762Y-14875667D01*
X7419286Y-14837571D01*
X7428809Y-14818524D01*
X7438333Y-14809000D01*
X7457381Y-14799476D01*
X7609762Y-14999476D02*
X7609762Y-14866143D01*
X7609762Y-14885190D02*
X7619286Y-14875667D01*
X7638333Y-14866143D01*
X7666905Y-14866143D01*
X7685952Y-14875667D01*
X7695476Y-14894714D01*
X7695476Y-14999476D01*
X7695476Y-14894714D02*
X7705000Y-14875667D01*
X7724048Y-14866143D01*
X7752619Y-14866143D01*
X7771667Y-14875667D01*
X7781190Y-14894714D01*
X7781190Y-14999476D01*
X7876428Y-14999476D02*
X7876428Y-14866143D01*
X7876428Y-14885190D02*
X7885952Y-14875667D01*
X7905000Y-14866143D01*
X7933571Y-14866143D01*
X7952619Y-14875667D01*
X7962143Y-14894714D01*
X7962143Y-14999476D01*
X7962143Y-14894714D02*
X7971667Y-14875667D01*
X7990714Y-14866143D01*
X8019286Y-14866143D01*
X8038333Y-14875667D01*
X8047857Y-14894714D01*
X8047857Y-14999476D01*
X8438333Y-14789952D02*
X8266905Y-15047095D01*
X8695476Y-14799476D02*
X8714524Y-14799476D01*
X8733571Y-14809000D01*
X8743095Y-14818524D01*
X8752619Y-14837571D01*
X8762143Y-14875667D01*
X8762143Y-14923286D01*
X8752619Y-14961381D01*
X8743095Y-14980428D01*
X8733571Y-14989952D01*
X8714524Y-14999476D01*
X8695476Y-14999476D01*
X8676429Y-14989952D01*
X8666905Y-14980428D01*
X8657381Y-14961381D01*
X8647857Y-14923286D01*
X8647857Y-14875667D01*
X8657381Y-14837571D01*
X8666905Y-14818524D01*
X8676429Y-14809000D01*
X8695476Y-14799476D01*
X8847857Y-14980428D02*
X8857381Y-14989952D01*
X8847857Y-14999476D01*
X8838333Y-14989952D01*
X8847857Y-14980428D01*
X8847857Y-14999476D01*
X8981190Y-14799476D02*
X9000238Y-14799476D01*
X9019286Y-14809000D01*
X9028810Y-14818524D01*
X9038333Y-14837571D01*
X9047857Y-14875667D01*
X9047857Y-14923286D01*
X9038333Y-14961381D01*
X9028810Y-14980428D01*
X9019286Y-14989952D01*
X9000238Y-14999476D01*
X8981190Y-14999476D01*
X8962143Y-14989952D01*
X8952619Y-14980428D01*
X8943095Y-14961381D01*
X8933571Y-14923286D01*
X8933571Y-14875667D01*
X8943095Y-14837571D01*
X8952619Y-14818524D01*
X8962143Y-14809000D01*
X8981190Y-14799476D01*
X9114524Y-14799476D02*
X9238333Y-14799476D01*
X9171667Y-14875667D01*
X9200238Y-14875667D01*
X9219286Y-14885190D01*
X9228810Y-14894714D01*
X9238333Y-14913762D01*
X9238333Y-14961381D01*
X9228810Y-14980428D01*
X9219286Y-14989952D01*
X9200238Y-14999476D01*
X9143095Y-14999476D01*
X9124048Y-14989952D01*
X9114524Y-14980428D01*
X9333571Y-14999476D02*
X9371667Y-14999476D01*
X9390714Y-14989952D01*
X9400238Y-14980428D01*
X9419286Y-14951857D01*
X9428810Y-14913762D01*
X9428810Y-14837571D01*
X9419286Y-14818524D01*
X9409762Y-14809000D01*
X9390714Y-14799476D01*
X9352619Y-14799476D01*
X9333571Y-14809000D01*
X9324048Y-14818524D01*
X9314524Y-14837571D01*
X9314524Y-14885190D01*
X9324048Y-14904238D01*
X9333571Y-14913762D01*
X9352619Y-14923286D01*
X9390714Y-14923286D01*
X9409762Y-14913762D01*
X9419286Y-14904238D01*
X9428810Y-14885190D01*
X9600238Y-14866143D02*
X9600238Y-14999476D01*
X9552619Y-14789952D02*
X9505000Y-14932809D01*
X9628810Y-14932809D01*
X9695476Y-14799476D02*
X9695476Y-14837571D01*
X9771667Y-14799476D02*
X9771667Y-14837571D01*
X10066905Y-15075667D02*
X10057381Y-15066143D01*
X10038333Y-15037571D01*
X10028810Y-15018524D01*
X10019286Y-14989952D01*
X10009762Y-14942333D01*
X10009762Y-14904238D01*
X10019286Y-14856619D01*
X10028810Y-14828048D01*
X10038333Y-14809000D01*
X10057381Y-14780428D01*
X10066905Y-14770905D01*
X10133571Y-14818524D02*
X10143095Y-14809000D01*
X10162143Y-14799476D01*
X10209762Y-14799476D01*
X10228810Y-14809000D01*
X10238333Y-14818524D01*
X10247857Y-14837571D01*
X10247857Y-14856619D01*
X10238333Y-14885190D01*
X10124048Y-14999476D01*
X10247857Y-14999476D01*
X10419286Y-14799476D02*
X10381190Y-14799476D01*
X10362143Y-14809000D01*
X10352619Y-14818524D01*
X10333571Y-14847095D01*
X10324048Y-14885190D01*
X10324048Y-14961381D01*
X10333571Y-14980428D01*
X10343095Y-14989952D01*
X10362143Y-14999476D01*
X10400238Y-14999476D01*
X10419286Y-14989952D01*
X10428810Y-14980428D01*
X10438333Y-14961381D01*
X10438333Y-14913762D01*
X10428810Y-14894714D01*
X10419286Y-14885190D01*
X10400238Y-14875667D01*
X10362143Y-14875667D01*
X10343095Y-14885190D01*
X10333571Y-14894714D01*
X10324048Y-14913762D01*
X10676429Y-14999476D02*
X10676429Y-14799476D01*
X10762143Y-14999476D02*
X10762143Y-14894714D01*
X10752619Y-14875667D01*
X10733571Y-14866143D01*
X10705000Y-14866143D01*
X10685952Y-14875667D01*
X10676429Y-14885190D01*
X10885952Y-14999476D02*
X10866905Y-14989952D01*
X10857381Y-14980428D01*
X10847857Y-14961381D01*
X10847857Y-14904238D01*
X10857381Y-14885190D01*
X10866905Y-14875667D01*
X10885952Y-14866143D01*
X10914524Y-14866143D01*
X10933571Y-14875667D01*
X10943095Y-14885190D01*
X10952619Y-14904238D01*
X10952619Y-14961381D01*
X10943095Y-14980428D01*
X10933571Y-14989952D01*
X10914524Y-14999476D01*
X10885952Y-14999476D01*
X11066905Y-14999476D02*
X11047857Y-14989952D01*
X11038333Y-14970905D01*
X11038333Y-14799476D01*
X11219286Y-14989952D02*
X11200238Y-14999476D01*
X11162143Y-14999476D01*
X11143095Y-14989952D01*
X11133571Y-14970905D01*
X11133571Y-14894714D01*
X11143095Y-14875667D01*
X11162143Y-14866143D01*
X11200238Y-14866143D01*
X11219286Y-14875667D01*
X11228809Y-14894714D01*
X11228809Y-14913762D01*
X11133571Y-14932809D01*
X11305000Y-14989952D02*
X11324048Y-14999476D01*
X11362143Y-14999476D01*
X11381190Y-14989952D01*
X11390714Y-14970905D01*
X11390714Y-14961381D01*
X11381190Y-14942333D01*
X11362143Y-14932809D01*
X11333571Y-14932809D01*
X11314524Y-14923286D01*
X11305000Y-14904238D01*
X11305000Y-14894714D01*
X11314524Y-14875667D01*
X11333571Y-14866143D01*
X11362143Y-14866143D01*
X11381190Y-14875667D01*
X11457381Y-15075667D02*
X11466905Y-15066143D01*
X11485952Y-15037571D01*
X11495476Y-15018524D01*
X11505000Y-14989952D01*
X11514524Y-14942333D01*
X11514524Y-14904238D01*
X11505000Y-14856619D01*
X11495476Y-14828048D01*
X11485952Y-14809000D01*
X11466905Y-14780428D01*
X11457381Y-14770905D01*
D14*
X6440000Y-15118000D02*
X6440000Y-15228000D01*
X6385000Y-15173000D02*
X6495000Y-15173000D01*
D11*
X6857381Y-15263476D02*
X6743095Y-15263476D01*
X6800238Y-15263476D02*
X6800238Y-15063476D01*
X6781190Y-15092048D01*
X6762143Y-15111095D01*
X6743095Y-15120619D01*
X6943095Y-15244428D02*
X6952619Y-15253952D01*
X6943095Y-15263476D01*
X6933571Y-15253952D01*
X6943095Y-15244428D01*
X6943095Y-15263476D01*
X7143095Y-15263476D02*
X7028809Y-15263476D01*
X7085952Y-15263476D02*
X7085952Y-15063476D01*
X7066905Y-15092048D01*
X7047857Y-15111095D01*
X7028809Y-15120619D01*
X7266905Y-15063476D02*
X7285952Y-15063476D01*
X7305000Y-15073000D01*
X7314524Y-15082524D01*
X7324048Y-15101571D01*
X7333571Y-15139667D01*
X7333571Y-15187286D01*
X7324048Y-15225381D01*
X7314524Y-15244428D01*
X7305000Y-15253952D01*
X7285952Y-15263476D01*
X7266905Y-15263476D01*
X7247857Y-15253952D01*
X7238333Y-15244428D01*
X7228809Y-15225381D01*
X7219286Y-15187286D01*
X7219286Y-15139667D01*
X7228809Y-15101571D01*
X7238333Y-15082524D01*
X7247857Y-15073000D01*
X7266905Y-15063476D01*
X7457381Y-15063476D02*
X7476428Y-15063476D01*
X7495476Y-15073000D01*
X7505000Y-15082524D01*
X7514524Y-15101571D01*
X7524048Y-15139667D01*
X7524048Y-15187286D01*
X7514524Y-15225381D01*
X7505000Y-15244428D01*
X7495476Y-15253952D01*
X7476428Y-15263476D01*
X7457381Y-15263476D01*
X7438333Y-15253952D01*
X7428809Y-15244428D01*
X7419286Y-15225381D01*
X7409762Y-15187286D01*
X7409762Y-15139667D01*
X7419286Y-15101571D01*
X7428809Y-15082524D01*
X7438333Y-15073000D01*
X7457381Y-15063476D01*
X7609762Y-15263476D02*
X7609762Y-15130143D01*
X7609762Y-15149190D02*
X7619286Y-15139667D01*
X7638333Y-15130143D01*
X7666905Y-15130143D01*
X7685952Y-15139667D01*
X7695476Y-15158714D01*
X7695476Y-15263476D01*
X7695476Y-15158714D02*
X7705000Y-15139667D01*
X7724048Y-15130143D01*
X7752619Y-15130143D01*
X7771667Y-15139667D01*
X7781190Y-15158714D01*
X7781190Y-15263476D01*
X7876428Y-15263476D02*
X7876428Y-15130143D01*
X7876428Y-15149190D02*
X7885952Y-15139667D01*
X7905000Y-15130143D01*
X7933571Y-15130143D01*
X7952619Y-15139667D01*
X7962143Y-15158714D01*
X7962143Y-15263476D01*
X7962143Y-15158714D02*
X7971667Y-15139667D01*
X7990714Y-15130143D01*
X8019286Y-15130143D01*
X8038333Y-15139667D01*
X8047857Y-15158714D01*
X8047857Y-15263476D01*
X8438333Y-15053952D02*
X8266905Y-15311095D01*
X8695476Y-15063476D02*
X8714524Y-15063476D01*
X8733571Y-15073000D01*
X8743095Y-15082524D01*
X8752619Y-15101571D01*
X8762143Y-15139667D01*
X8762143Y-15187286D01*
X8752619Y-15225381D01*
X8743095Y-15244428D01*
X8733571Y-15253952D01*
X8714524Y-15263476D01*
X8695476Y-15263476D01*
X8676429Y-15253952D01*
X8666905Y-15244428D01*
X8657381Y-15225381D01*
X8647857Y-15187286D01*
X8647857Y-15139667D01*
X8657381Y-15101571D01*
X8666905Y-15082524D01*
X8676429Y-15073000D01*
X8695476Y-15063476D01*
X8847857Y-15244428D02*
X8857381Y-15253952D01*
X8847857Y-15263476D01*
X8838333Y-15253952D01*
X8847857Y-15244428D01*
X8847857Y-15263476D01*
X8981190Y-15063476D02*
X9000238Y-15063476D01*
X9019286Y-15073000D01*
X9028810Y-15082524D01*
X9038333Y-15101571D01*
X9047857Y-15139667D01*
X9047857Y-15187286D01*
X9038333Y-15225381D01*
X9028810Y-15244428D01*
X9019286Y-15253952D01*
X9000238Y-15263476D01*
X8981190Y-15263476D01*
X8962143Y-15253952D01*
X8952619Y-15244428D01*
X8943095Y-15225381D01*
X8933571Y-15187286D01*
X8933571Y-15139667D01*
X8943095Y-15101571D01*
X8952619Y-15082524D01*
X8962143Y-15073000D01*
X8981190Y-15063476D01*
X9219286Y-15130143D02*
X9219286Y-15263476D01*
X9171667Y-15053952D02*
X9124048Y-15196809D01*
X9247857Y-15196809D01*
X9305000Y-15063476D02*
X9428810Y-15063476D01*
X9362143Y-15139667D01*
X9390714Y-15139667D01*
X9409762Y-15149190D01*
X9419286Y-15158714D01*
X9428810Y-15177762D01*
X9428810Y-15225381D01*
X9419286Y-15244428D01*
X9409762Y-15253952D01*
X9390714Y-15263476D01*
X9333571Y-15263476D01*
X9314524Y-15253952D01*
X9305000Y-15244428D01*
X9495476Y-15063476D02*
X9619286Y-15063476D01*
X9552619Y-15139667D01*
X9581190Y-15139667D01*
X9600238Y-15149190D01*
X9609762Y-15158714D01*
X9619286Y-15177762D01*
X9619286Y-15225381D01*
X9609762Y-15244428D01*
X9600238Y-15253952D01*
X9581190Y-15263476D01*
X9524048Y-15263476D01*
X9505000Y-15253952D01*
X9495476Y-15244428D01*
X9695476Y-15063476D02*
X9695476Y-15101571D01*
X9771667Y-15063476D02*
X9771667Y-15101571D01*
X10066905Y-15339667D02*
X10057381Y-15330143D01*
X10038333Y-15301571D01*
X10028810Y-15282524D01*
X10019286Y-15253952D01*
X10009762Y-15206333D01*
X10009762Y-15168238D01*
X10019286Y-15120619D01*
X10028810Y-15092048D01*
X10038333Y-15073000D01*
X10057381Y-15044428D01*
X10066905Y-15034905D01*
X10124048Y-15063476D02*
X10247857Y-15063476D01*
X10181190Y-15139667D01*
X10209762Y-15139667D01*
X10228810Y-15149190D01*
X10238333Y-15158714D01*
X10247857Y-15177762D01*
X10247857Y-15225381D01*
X10238333Y-15244428D01*
X10228810Y-15253952D01*
X10209762Y-15263476D01*
X10152619Y-15263476D01*
X10133571Y-15253952D01*
X10124048Y-15244428D01*
X10343095Y-15263476D02*
X10381190Y-15263476D01*
X10400238Y-15253952D01*
X10409762Y-15244428D01*
X10428810Y-15215857D01*
X10438333Y-15177762D01*
X10438333Y-15101571D01*
X10428810Y-15082524D01*
X10419286Y-15073000D01*
X10400238Y-15063476D01*
X10362143Y-15063476D01*
X10343095Y-15073000D01*
X10333571Y-15082524D01*
X10324048Y-15101571D01*
X10324048Y-15149190D01*
X10333571Y-15168238D01*
X10343095Y-15177762D01*
X10362143Y-15187286D01*
X10400238Y-15187286D01*
X10419286Y-15177762D01*
X10428810Y-15168238D01*
X10438333Y-15149190D01*
X10676429Y-15263476D02*
X10676429Y-15063476D01*
X10762143Y-15263476D02*
X10762143Y-15158714D01*
X10752619Y-15139667D01*
X10733571Y-15130143D01*
X10705000Y-15130143D01*
X10685952Y-15139667D01*
X10676429Y-15149190D01*
X10885952Y-15263476D02*
X10866905Y-15253952D01*
X10857381Y-15244428D01*
X10847857Y-15225381D01*
X10847857Y-15168238D01*
X10857381Y-15149190D01*
X10866905Y-15139667D01*
X10885952Y-15130143D01*
X10914524Y-15130143D01*
X10933571Y-15139667D01*
X10943095Y-15149190D01*
X10952619Y-15168238D01*
X10952619Y-15225381D01*
X10943095Y-15244428D01*
X10933571Y-15253952D01*
X10914524Y-15263476D01*
X10885952Y-15263476D01*
X11066905Y-15263476D02*
X11047857Y-15253952D01*
X11038333Y-15234905D01*
X11038333Y-15063476D01*
X11219286Y-15253952D02*
X11200238Y-15263476D01*
X11162143Y-15263476D01*
X11143095Y-15253952D01*
X11133571Y-15234905D01*
X11133571Y-15158714D01*
X11143095Y-15139667D01*
X11162143Y-15130143D01*
X11200238Y-15130143D01*
X11219286Y-15139667D01*
X11228809Y-15158714D01*
X11228809Y-15177762D01*
X11133571Y-15196809D01*
X11305000Y-15253952D02*
X11324048Y-15263476D01*
X11362143Y-15263476D01*
X11381190Y-15253952D01*
X11390714Y-15234905D01*
X11390714Y-15225381D01*
X11381190Y-15206333D01*
X11362143Y-15196809D01*
X11333571Y-15196809D01*
X11314524Y-15187286D01*
X11305000Y-15168238D01*
X11305000Y-15158714D01*
X11314524Y-15139667D01*
X11333571Y-15130143D01*
X11362143Y-15130143D01*
X11381190Y-15139667D01*
X11457381Y-15339667D02*
X11466905Y-15330143D01*
X11485952Y-15301571D01*
X11495476Y-15282524D01*
X11505000Y-15253952D01*
X11514524Y-15206333D01*
X11514524Y-15168238D01*
X11505000Y-15120619D01*
X11495476Y-15092048D01*
X11485952Y-15073000D01*
X11466905Y-15044428D01*
X11457381Y-15034905D01*
D15*
X6472741Y-15490741D02*
X6472741Y-15383259D01*
X6365259Y-15383259D01*
X6365259Y-15490741D01*
X6472741Y-15490741D01*
D11*
X6857381Y-15527476D02*
X6743095Y-15527476D01*
X6800238Y-15527476D02*
X6800238Y-15327476D01*
X6781190Y-15356048D01*
X6762143Y-15375095D01*
X6743095Y-15384619D01*
X6943095Y-15508428D02*
X6952619Y-15517952D01*
X6943095Y-15527476D01*
X6933571Y-15517952D01*
X6943095Y-15508428D01*
X6943095Y-15527476D01*
X7133571Y-15327476D02*
X7038333Y-15327476D01*
X7028809Y-15422714D01*
X7038333Y-15413190D01*
X7057381Y-15403667D01*
X7105000Y-15403667D01*
X7124048Y-15413190D01*
X7133571Y-15422714D01*
X7143095Y-15441762D01*
X7143095Y-15489381D01*
X7133571Y-15508428D01*
X7124048Y-15517952D01*
X7105000Y-15527476D01*
X7057381Y-15527476D01*
X7038333Y-15517952D01*
X7028809Y-15508428D01*
X7219286Y-15346524D02*
X7228809Y-15337000D01*
X7247857Y-15327476D01*
X7295476Y-15327476D01*
X7314524Y-15337000D01*
X7324048Y-15346524D01*
X7333571Y-15365571D01*
X7333571Y-15384619D01*
X7324048Y-15413190D01*
X7209762Y-15527476D01*
X7333571Y-15527476D01*
X7457381Y-15327476D02*
X7476428Y-15327476D01*
X7495476Y-15337000D01*
X7505000Y-15346524D01*
X7514524Y-15365571D01*
X7524048Y-15403667D01*
X7524048Y-15451286D01*
X7514524Y-15489381D01*
X7505000Y-15508428D01*
X7495476Y-15517952D01*
X7476428Y-15527476D01*
X7457381Y-15527476D01*
X7438333Y-15517952D01*
X7428809Y-15508428D01*
X7419286Y-15489381D01*
X7409762Y-15451286D01*
X7409762Y-15403667D01*
X7419286Y-15365571D01*
X7428809Y-15346524D01*
X7438333Y-15337000D01*
X7457381Y-15327476D01*
X7609762Y-15527476D02*
X7609762Y-15394143D01*
X7609762Y-15413190D02*
X7619286Y-15403667D01*
X7638333Y-15394143D01*
X7666905Y-15394143D01*
X7685952Y-15403667D01*
X7695476Y-15422714D01*
X7695476Y-15527476D01*
X7695476Y-15422714D02*
X7705000Y-15403667D01*
X7724048Y-15394143D01*
X7752619Y-15394143D01*
X7771667Y-15403667D01*
X7781190Y-15422714D01*
X7781190Y-15527476D01*
X7876428Y-15527476D02*
X7876428Y-15394143D01*
X7876428Y-15413190D02*
X7885952Y-15403667D01*
X7905000Y-15394143D01*
X7933571Y-15394143D01*
X7952619Y-15403667D01*
X7962143Y-15422714D01*
X7962143Y-15527476D01*
X7962143Y-15422714D02*
X7971667Y-15403667D01*
X7990714Y-15394143D01*
X8019286Y-15394143D01*
X8038333Y-15403667D01*
X8047857Y-15422714D01*
X8047857Y-15527476D01*
X8438333Y-15317952D02*
X8266905Y-15575095D01*
X8695476Y-15327476D02*
X8714524Y-15327476D01*
X8733571Y-15337000D01*
X8743095Y-15346524D01*
X8752619Y-15365571D01*
X8762143Y-15403667D01*
X8762143Y-15451286D01*
X8752619Y-15489381D01*
X8743095Y-15508428D01*
X8733571Y-15517952D01*
X8714524Y-15527476D01*
X8695476Y-15527476D01*
X8676429Y-15517952D01*
X8666905Y-15508428D01*
X8657381Y-15489381D01*
X8647857Y-15451286D01*
X8647857Y-15403667D01*
X8657381Y-15365571D01*
X8666905Y-15346524D01*
X8676429Y-15337000D01*
X8695476Y-15327476D01*
X8847857Y-15508428D02*
X8857381Y-15517952D01*
X8847857Y-15527476D01*
X8838333Y-15517952D01*
X8847857Y-15508428D01*
X8847857Y-15527476D01*
X8981190Y-15327476D02*
X9000238Y-15327476D01*
X9019286Y-15337000D01*
X9028810Y-15346524D01*
X9038333Y-15365571D01*
X9047857Y-15403667D01*
X9047857Y-15451286D01*
X9038333Y-15489381D01*
X9028810Y-15508428D01*
X9019286Y-15517952D01*
X9000238Y-15527476D01*
X8981190Y-15527476D01*
X8962143Y-15517952D01*
X8952619Y-15508428D01*
X8943095Y-15489381D01*
X8933571Y-15451286D01*
X8933571Y-15403667D01*
X8943095Y-15365571D01*
X8952619Y-15346524D01*
X8962143Y-15337000D01*
X8981190Y-15327476D01*
X9228810Y-15327476D02*
X9133571Y-15327476D01*
X9124048Y-15422714D01*
X9133571Y-15413190D01*
X9152619Y-15403667D01*
X9200238Y-15403667D01*
X9219286Y-15413190D01*
X9228810Y-15422714D01*
X9238333Y-15441762D01*
X9238333Y-15489381D01*
X9228810Y-15508428D01*
X9219286Y-15517952D01*
X9200238Y-15527476D01*
X9152619Y-15527476D01*
X9133571Y-15517952D01*
X9124048Y-15508428D01*
X9333571Y-15527476D02*
X9371667Y-15527476D01*
X9390714Y-15517952D01*
X9400238Y-15508428D01*
X9419286Y-15479857D01*
X9428810Y-15441762D01*
X9428810Y-15365571D01*
X9419286Y-15346524D01*
X9409762Y-15337000D01*
X9390714Y-15327476D01*
X9352619Y-15327476D01*
X9333571Y-15337000D01*
X9324048Y-15346524D01*
X9314524Y-15365571D01*
X9314524Y-15413190D01*
X9324048Y-15432238D01*
X9333571Y-15441762D01*
X9352619Y-15451286D01*
X9390714Y-15451286D01*
X9409762Y-15441762D01*
X9419286Y-15432238D01*
X9428810Y-15413190D01*
X9543095Y-15413190D02*
X9524048Y-15403667D01*
X9514524Y-15394143D01*
X9505000Y-15375095D01*
X9505000Y-15365571D01*
X9514524Y-15346524D01*
X9524048Y-15337000D01*
X9543095Y-15327476D01*
X9581190Y-15327476D01*
X9600238Y-15337000D01*
X9609762Y-15346524D01*
X9619286Y-15365571D01*
X9619286Y-15375095D01*
X9609762Y-15394143D01*
X9600238Y-15403667D01*
X9581190Y-15413190D01*
X9543095Y-15413190D01*
X9524048Y-15422714D01*
X9514524Y-15432238D01*
X9505000Y-15451286D01*
X9505000Y-15489381D01*
X9514524Y-15508428D01*
X9524048Y-15517952D01*
X9543095Y-15527476D01*
X9581190Y-15527476D01*
X9600238Y-15517952D01*
X9609762Y-15508428D01*
X9619286Y-15489381D01*
X9619286Y-15451286D01*
X9609762Y-15432238D01*
X9600238Y-15422714D01*
X9581190Y-15413190D01*
X9695476Y-15327476D02*
X9695476Y-15365571D01*
X9771667Y-15327476D02*
X9771667Y-15365571D01*
X10066905Y-15603667D02*
X10057381Y-15594143D01*
X10038333Y-15565571D01*
X10028810Y-15546524D01*
X10019286Y-15517952D01*
X10009762Y-15470333D01*
X10009762Y-15432238D01*
X10019286Y-15384619D01*
X10028810Y-15356048D01*
X10038333Y-15337000D01*
X10057381Y-15308428D01*
X10066905Y-15298905D01*
X10228810Y-15327476D02*
X10190714Y-15327476D01*
X10171667Y-15337000D01*
X10162143Y-15346524D01*
X10143095Y-15375095D01*
X10133571Y-15413190D01*
X10133571Y-15489381D01*
X10143095Y-15508428D01*
X10152619Y-15517952D01*
X10171667Y-15527476D01*
X10209762Y-15527476D01*
X10228810Y-15517952D01*
X10238333Y-15508428D01*
X10247857Y-15489381D01*
X10247857Y-15441762D01*
X10238333Y-15422714D01*
X10228810Y-15413190D01*
X10209762Y-15403667D01*
X10171667Y-15403667D01*
X10152619Y-15413190D01*
X10143095Y-15422714D01*
X10133571Y-15441762D01*
X10485952Y-15527476D02*
X10485952Y-15327476D01*
X10571667Y-15527476D02*
X10571667Y-15422714D01*
X10562143Y-15403667D01*
X10543095Y-15394143D01*
X10514524Y-15394143D01*
X10495476Y-15403667D01*
X10485952Y-15413190D01*
X10695476Y-15527476D02*
X10676429Y-15517952D01*
X10666905Y-15508428D01*
X10657381Y-15489381D01*
X10657381Y-15432238D01*
X10666905Y-15413190D01*
X10676429Y-15403667D01*
X10695476Y-15394143D01*
X10724048Y-15394143D01*
X10743095Y-15403667D01*
X10752619Y-15413190D01*
X10762143Y-15432238D01*
X10762143Y-15489381D01*
X10752619Y-15508428D01*
X10743095Y-15517952D01*
X10724048Y-15527476D01*
X10695476Y-15527476D01*
X10876429Y-15527476D02*
X10857381Y-15517952D01*
X10847857Y-15498905D01*
X10847857Y-15327476D01*
X11028810Y-15517952D02*
X11009762Y-15527476D01*
X10971667Y-15527476D01*
X10952619Y-15517952D01*
X10943095Y-15498905D01*
X10943095Y-15422714D01*
X10952619Y-15403667D01*
X10971667Y-15394143D01*
X11009762Y-15394143D01*
X11028810Y-15403667D01*
X11038333Y-15422714D01*
X11038333Y-15441762D01*
X10943095Y-15460809D01*
X11114524Y-15517952D02*
X11133571Y-15527476D01*
X11171667Y-15527476D01*
X11190714Y-15517952D01*
X11200238Y-15498905D01*
X11200238Y-15489381D01*
X11190714Y-15470333D01*
X11171667Y-15460809D01*
X11143095Y-15460809D01*
X11124048Y-15451286D01*
X11114524Y-15432238D01*
X11114524Y-15422714D01*
X11124048Y-15403667D01*
X11143095Y-15394143D01*
X11171667Y-15394143D01*
X11190714Y-15403667D01*
X11266905Y-15603667D02*
X11276428Y-15594143D01*
X11295476Y-15565571D01*
X11305000Y-15546524D01*
X11314524Y-15517952D01*
X11324048Y-15470333D01*
X11324048Y-15432238D01*
X11314524Y-15384619D01*
X11305000Y-15356048D01*
X11295476Y-15337000D01*
X11276428Y-15308428D01*
X11266905Y-15298905D01*
M02*
