M48
; DRILL file {KiCad (6.0.6)} date Thu Jul  7 23:48:38 2022
; FORMAT={-:-/ absolute / metric / decimal}
; #@! TF.CreationDate,2022-07-07T23:48:38-04:00
; #@! TF.GenerationSoftware,Kicad,Pcbnew,(6.0.6)
; #@! TF.FileFunction,Plated,1,2,PTH
FMAT,2
METRIC
; #@! TA.AperFunction,Plated,PTH,ViaDrill
T1C0.500
; #@! TA.AperFunction,Plated,PTH,ComponentDrill
T2C1.000
; #@! TA.AperFunction,Plated,PTH,ComponentDrill
T3C1.100
; #@! TA.AperFunction,Plated,PTH,ComponentDrill
T4C1.520
%
G90
G05
T1
X73.0Y-92.0
X120.4Y-103.6
X120.95Y-98.05
X122.5Y-104.0
T2
X87.31Y-113.85
X87.31Y-126.55
X89.85Y-113.85
X89.85Y-126.55
X92.39Y-113.85
X92.39Y-126.55
X94.93Y-113.85
X94.93Y-126.55
X97.47Y-113.85
X97.47Y-126.55
X100.01Y-113.85
X100.01Y-126.55
X102.55Y-113.85
X102.55Y-126.55
X105.09Y-113.85
X105.09Y-126.55
X115.5Y-95.375
X115.5Y-97.915
X115.5Y-100.455
X115.5Y-102.995
X115.5Y-115.368
X115.5Y-120.368
X118.04Y-95.375
X118.04Y-97.915
X118.04Y-100.455
X118.04Y-102.995
T3
X74.3Y-94.5
X74.3Y-109.74
X74.478Y-102.425
X74.478Y-104.406
X76.84Y-94.5
X76.84Y-97.04
X76.84Y-109.74
X79.38Y-94.5
X79.38Y-109.74
X81.92Y-94.5
X81.92Y-97.04
X81.92Y-109.74
X84.46Y-94.5
X84.46Y-97.04
X84.46Y-109.74
X87.0Y-94.5
X87.0Y-97.04
X87.0Y-109.74
X89.54Y-94.5
X89.54Y-109.74
X92.08Y-94.5
X92.08Y-109.74
X94.62Y-94.5
X94.62Y-109.74
X97.16Y-94.5
X97.16Y-109.74
X99.7Y-94.5
X99.7Y-109.74
X102.24Y-94.5
X102.24Y-109.74
X104.78Y-94.5
X104.78Y-109.74
X107.32Y-94.5
X107.32Y-97.04
X107.32Y-99.58
X107.32Y-102.12
X107.32Y-104.66
X107.32Y-107.2
X107.32Y-109.74
T4
X76.26Y-133.5
X77.5Y-118.5
X77.5Y-123.58
X81.34Y-133.5
X86.42Y-133.5
X91.5Y-133.5
T0
M30
