M48
; DRILL file {KiCad (6.0.6)} date Thu Jul  7 23:14:03 2022
; FORMAT={-:-/ absolute / metric / decimal}
; #@! TF.CreationDate,2022-07-07T23:14:03-04:00
; #@! TF.GenerationSoftware,Kicad,Pcbnew,(6.0.6)
; #@! TF.FileFunction,Plated,1,2,PTH
FMAT,2
METRIC
; #@! TA.AperFunction,Plated,PTH,ViaDrill
T1C0.400
; #@! TA.AperFunction,Plated,PTH,ViaDrill
T2C0.500
; #@! TA.AperFunction,Plated,PTH,ComponentDrill
T3C0.800
; #@! TA.AperFunction,Plated,PTH,ComponentDrill
T4C1.000
; #@! TA.AperFunction,Plated,PTH,ComponentDrill
T5C1.100
; #@! TA.AperFunction,Plated,PTH,ComponentDrill
T6C1.520
%
G90
G05
T1
X130.5Y-87.0
X131.5Y-88.0
X135.75Y-87.75
X136.6Y-97.4
X136.6Y-98.65
X140.5Y-89.0
X141.0Y-88.0
X141.5Y-89.0
X142.0Y-88.0
X143.5Y-90.0
X143.5Y-91.0
X148.0Y-84.5
X150.5Y-89.0
X151.5Y-88.5
T2
X142.5Y-67.0
X142.5Y-68.5
X156.5Y-89.0
X159.0Y-89.0
T3
X132.5Y-68.545
X132.5Y-70.545
X138.0Y-69.5
X140.0Y-69.5
T4
X106.5Y-88.31
X106.5Y-90.85
X106.5Y-93.39
X106.5Y-95.93
X106.5Y-98.47
X106.5Y-101.01
X106.5Y-103.55
X106.5Y-106.09
X131.6Y-92.16
X131.6Y-94.7
X131.6Y-97.24
X131.6Y-99.78
X145.8Y-68.2
X148.2Y-73.375
X148.2Y-75.915
X148.2Y-78.455
X148.2Y-80.995
X148.34Y-68.2
X150.74Y-73.375
X150.74Y-75.915
X150.74Y-78.455
X150.74Y-80.995
X150.88Y-68.2
X153.42Y-68.2
T5
X110.38Y-67.99
X110.38Y-70.53
X110.38Y-73.07
X110.38Y-75.61
X110.38Y-78.15
X110.38Y-80.69
X110.38Y-83.23
X110.38Y-85.77
X110.38Y-88.31
X110.38Y-90.85
X110.38Y-93.39
X110.38Y-95.93
X110.38Y-98.47
X110.38Y-101.01
X112.92Y-93.39
X112.92Y-95.93
X112.92Y-101.01
X115.46Y-93.39
X115.46Y-95.93
X115.46Y-101.01
X118.0Y-93.39
X118.0Y-95.93
X118.0Y-101.01
X120.54Y-93.39
X120.54Y-95.93
X120.54Y-101.01
X123.08Y-70.53
X123.08Y-93.39
X123.08Y-95.93
X123.08Y-101.01
X125.62Y-67.99
X125.62Y-70.53
X125.62Y-73.07
X125.62Y-75.61
X125.62Y-78.15
X125.62Y-80.69
X125.62Y-83.23
X125.62Y-85.77
X125.62Y-88.31
X125.62Y-90.85
X125.62Y-93.39
X125.62Y-95.93
X125.62Y-98.47
X125.62Y-101.01
T6
X117.96Y-113.0
X123.04Y-113.0
X130.96Y-113.0
X136.04Y-113.0
X143.96Y-113.0
X149.04Y-113.0
X156.96Y-113.0
X162.04Y-113.0
X173.0Y-92.88
X173.0Y-97.96
X173.0Y-103.04
X173.0Y-108.12
T0
M30
