%TF.GenerationSoftware,KiCad,Pcbnew,(6.0.6)*%
%TF.CreationDate,2022-07-07T23:13:33-04:00*%
%TF.ProjectId,Autohelm_ControlPanel,4175746f-6865-46c6-9d5f-436f6e74726f,rev?*%
%TF.SameCoordinates,Original*%
%TF.FileFunction,Soldermask,Top*%
%TF.FilePolarity,Negative*%
%FSLAX46Y46*%
G04 Gerber Fmt 4.6, Leading zero omitted, Abs format (unit mm)*
G04 Created by KiCad (PCBNEW (6.0.6)) date 2022-07-07 23:13:33*
%MOMM*%
%LPD*%
G01*
G04 APERTURE LIST*
G04 Aperture macros list*
%AMRoundRect*
0 Rectangle with rounded corners*
0 $1 Rounding radius*
0 $2 $3 $4 $5 $6 $7 $8 $9 X,Y pos of 4 corners*
0 Add a 4 corners polygon primitive as box body*
4,1,4,$2,$3,$4,$5,$6,$7,$8,$9,$2,$3,0*
0 Add four circle primitives for the rounded corners*
1,1,$1+$1,$2,$3*
1,1,$1+$1,$4,$5*
1,1,$1+$1,$6,$7*
1,1,$1+$1,$8,$9*
0 Add four rect primitives between the rounded corners*
20,1,$1+$1,$2,$3,$4,$5,0*
20,1,$1+$1,$4,$5,$6,$7,0*
20,1,$1+$1,$6,$7,$8,$9,0*
20,1,$1+$1,$8,$9,$2,$3,0*%
G04 Aperture macros list end*
%ADD10RoundRect,0.250000X-0.450000X0.262500X-0.450000X-0.262500X0.450000X-0.262500X0.450000X0.262500X0*%
%ADD11RoundRect,0.070000X0.650000X0.300000X-0.650000X0.300000X-0.650000X-0.300000X0.650000X-0.300000X0*%
%ADD12R,1.700000X1.700000*%
%ADD13O,1.700000X1.700000*%
%ADD14RoundRect,0.249999X-0.450001X-1.450001X0.450001X-1.450001X0.450001X1.450001X-0.450001X1.450001X0*%
%ADD15RoundRect,0.250000X0.450000X-0.262500X0.450000X0.262500X-0.450000X0.262500X-0.450000X-0.262500X0*%
%ADD16R,3.000000X3.000000*%
%ADD17C,3.000000*%
%ADD18C,1.600000*%
%ADD19C,1.700000*%
%ADD20R,1.600000X1.600000*%
%ADD21RoundRect,0.249999X-1.450001X0.450001X-1.450001X-0.450001X1.450001X-0.450001X1.450001X0.450001X0*%
%ADD22RoundRect,0.249999X1.450001X-0.450001X1.450001X0.450001X-1.450001X0.450001X-1.450001X-0.450001X0*%
%ADD23RoundRect,0.249999X0.450001X1.450001X-0.450001X1.450001X-0.450001X-1.450001X0.450001X-1.450001X0*%
G04 APERTURE END LIST*
D10*
%TO.C,R7*%
X132500000Y-79087500D03*
X132500000Y-80912500D03*
%TD*%
D11*
%TO.C,Q1*%
X129450000Y-75500000D03*
X131550000Y-74550000D03*
X131550000Y-76450000D03*
%TD*%
D12*
%TO.C,U3*%
X131600000Y-92160000D03*
D13*
X131600000Y-94700000D03*
X131600000Y-97240000D03*
X131600000Y-99780000D03*
%TD*%
D14*
%TO.C,C8*%
X162250000Y-100000000D03*
X166350000Y-100000000D03*
%TD*%
D15*
%TO.C,R6*%
X163000000Y-107825000D03*
X163000000Y-106000000D03*
%TD*%
D16*
%TO.C,J1*%
X173000000Y-108120000D03*
D17*
X173000000Y-103040000D03*
X173000000Y-97960000D03*
X173000000Y-92880000D03*
%TD*%
D18*
%TO.C,U4*%
X110380000Y-67990000D03*
X110380000Y-70530000D03*
X110380000Y-73070000D03*
X110380000Y-75610000D03*
X110380000Y-78150000D03*
X110380000Y-80690000D03*
X110380000Y-83230000D03*
X110380000Y-85770000D03*
X110380000Y-88310000D03*
X110380000Y-90850000D03*
X110380000Y-93390000D03*
X110380000Y-95930000D03*
X110380000Y-98470000D03*
X110380000Y-101010000D03*
X112920000Y-101010000D03*
X115460000Y-101010000D03*
X118000000Y-101010000D03*
X120540000Y-101010000D03*
X123080000Y-101010000D03*
X125620000Y-101010000D03*
X125620000Y-98470000D03*
X125620000Y-95930000D03*
X125620000Y-93390000D03*
X125620000Y-90850000D03*
X125620000Y-88310000D03*
X125620000Y-85770000D03*
X125620000Y-83230000D03*
X125620000Y-80690000D03*
X125620000Y-78150000D03*
X125620000Y-75610000D03*
X125620000Y-73070000D03*
X125620000Y-70530000D03*
X125620000Y-67990000D03*
X123080000Y-70530000D03*
X123080000Y-95930000D03*
X123080000Y-93390000D03*
X120540000Y-95930000D03*
X120540000Y-93390000D03*
X118000000Y-95930000D03*
X118000000Y-93390000D03*
X115460000Y-95930000D03*
X115460000Y-93390000D03*
X112920000Y-95930000D03*
X112920000Y-93390000D03*
%TD*%
D10*
%TO.C,R1*%
X129500000Y-83087500D03*
X129500000Y-84912500D03*
%TD*%
D14*
%TO.C,C6*%
X162200000Y-90000000D03*
X166300000Y-90000000D03*
%TD*%
%TO.C,C5*%
X137950000Y-76200000D03*
X142050000Y-76200000D03*
%TD*%
D16*
%TO.C,SW3*%
X130960000Y-113000000D03*
D17*
X136040000Y-113000000D03*
%TD*%
D16*
%TO.C,SW4*%
X117960000Y-113000000D03*
D17*
X123040000Y-113000000D03*
%TD*%
D16*
%TO.C,SW2*%
X143960000Y-113000000D03*
D17*
X149040000Y-113000000D03*
%TD*%
D16*
%TO.C,SW1*%
X156960000Y-113000000D03*
D17*
X162040000Y-113000000D03*
%TD*%
D14*
%TO.C,C7*%
X162200000Y-95000000D03*
X166300000Y-95000000D03*
%TD*%
D12*
%TO.C,U1*%
X148200000Y-73375000D03*
D19*
X150740000Y-73375000D03*
X148200000Y-75915000D03*
X150740000Y-75915000D03*
X148200000Y-78455000D03*
X150740000Y-78455000D03*
X148200000Y-80995000D03*
X150740000Y-80995000D03*
%TD*%
D20*
%TO.C,C2*%
X132500000Y-68544888D03*
D18*
X132500000Y-70544888D03*
%TD*%
D15*
%TO.C,R5*%
X150000000Y-107825000D03*
X150000000Y-106000000D03*
%TD*%
%TO.C,R3*%
X124000000Y-107912500D03*
X124000000Y-106087500D03*
%TD*%
D21*
%TO.C,C10*%
X136600000Y-91350000D03*
X136600000Y-95450000D03*
%TD*%
%TO.C,C9*%
X111500000Y-103950000D03*
X111500000Y-108050000D03*
%TD*%
D22*
%TO.C,C12*%
X155200000Y-77250000D03*
X155200000Y-73150000D03*
%TD*%
D10*
%TO.C,R2*%
X129500000Y-79087500D03*
X129500000Y-80912500D03*
%TD*%
D12*
%TO.C,U2*%
X145800000Y-68200000D03*
D13*
X148340000Y-68200000D03*
X150880000Y-68200000D03*
X153420000Y-68200000D03*
%TD*%
D23*
%TO.C,C11*%
X160650000Y-69000000D03*
X156550000Y-69000000D03*
%TD*%
D14*
%TO.C,C3*%
X137950000Y-85000000D03*
X142050000Y-85000000D03*
%TD*%
D15*
%TO.C,R4*%
X137000000Y-107912500D03*
X137000000Y-106087500D03*
%TD*%
D20*
%TO.C,C1*%
X138000000Y-69500000D03*
D18*
X140000000Y-69500000D03*
%TD*%
D12*
%TO.C,U5*%
X106500000Y-106090000D03*
D13*
X106500000Y-103550000D03*
X106500000Y-101010000D03*
X106500000Y-98470000D03*
X106500000Y-95930000D03*
X106500000Y-93390000D03*
X106500000Y-90850000D03*
X106500000Y-88310000D03*
%TD*%
D14*
%TO.C,C4*%
X137950000Y-80600000D03*
X142050000Y-80600000D03*
%TD*%
M02*
